<svg width="105" height="26" viewBox="0 0 105 26" fill="none" xmlns="http://www.w3.org/2000/svg">
<g clip-path="url(#clip0_557_94)">
<path d="M52.5 26C59.4036 26 65 20.4036 65 13.5C65 6.59644 59.4036 1 52.5 1C45.5964 1 40 6.59644 40 13.5C40 20.4036 45.5964 26 52.5 26Z" fill="#4D76A1"/>
<path fill-rule="evenodd" clip-rule="evenodd" d="M52.0279 18.9824H53.009C53.009 18.9824 53.3054 18.9499 53.4567 18.7867C53.5959 18.637 53.5915 18.3558 53.5915 18.3558C53.5915 18.3558 53.5723 17.0394 54.1833 16.8455C54.7856 16.6545 55.559 18.1178 56.3788 18.6805C56.9987 19.1063 57.4697 19.0129 57.4697 19.0129L59.6616 18.9824C59.6616 18.9824 60.8083 18.9118 60.2646 18.0102C60.22 17.9365 59.948 17.3433 58.6349 16.1244C57.2605 14.8488 57.4445 15.0551 59.1001 12.8485C60.1084 11.5046 60.5115 10.6842 60.3856 10.3328C60.2655 9.99811 59.5239 10.0866 59.5239 10.0866L57.0559 10.1019C57.0559 10.1019 56.873 10.077 56.7373 10.1581C56.6047 10.2376 56.5194 10.423 56.5194 10.423C56.5194 10.423 56.1288 11.463 55.6078 12.3473C54.5088 14.2135 54.0694 14.312 53.8898 14.1961C53.472 13.9261 53.5763 13.1112 53.5763 12.5323C53.5763 10.7239 53.8506 9.96981 53.0422 9.77462C52.7739 9.70978 52.5765 9.66699 51.8904 9.66009C51.0098 9.65095 50.2645 9.66276 49.8424 9.86954C49.5617 10.007 49.3451 10.3134 49.477 10.331C49.6401 10.3528 50.0096 10.4306 50.2054 10.6973C50.4583 11.0414 50.4494 11.8141 50.4494 11.8141C50.4494 11.8141 50.5947 13.943 50.1101 14.2075C49.7774 14.3889 49.321 14.0185 48.3413 12.3255C47.8393 11.4583 47.4602 10.4997 47.4602 10.4997C47.4602 10.4997 47.3871 10.3205 47.2568 10.2247C47.0986 10.1086 46.8775 10.0716 46.8775 10.0716L44.5323 10.087C44.5323 10.087 44.1803 10.0968 44.051 10.2499C43.936 10.386 44.0419 10.6677 44.0419 10.6677C44.0419 10.6677 45.878 14.9633 47.9569 17.128C49.8632 19.1127 52.0279 18.9824 52.0279 18.9824Z" fill="white"/>
</g>
<g clip-path="url(#clip1_557_94)">
<path d="M92.5 26C99.4035 26 105 20.4036 105 13.5002C105 6.59677 99.4035 1.00043 92.5 1.00043C85.5966 1.00043 80.0002 6.59677 80.0002 13.5002C80.0002 20.4036 85.5966 26 92.5 26Z" fill="#CB2027"/>
<path d="M93.5089 17.7387C92.5639 17.6656 92.1669 17.197 91.4258 16.7471C91.0185 18.8842 90.5207 20.9328 89.0463 22.003C88.5906 18.773 89.7143 16.347 90.2361 13.7718C89.3466 12.2745 90.3431 9.26059 92.2192 10.0033C94.5283 10.9164 90.2201 15.5709 93.1123 16.1522C96.1317 16.7592 97.3644 10.913 95.4918 9.01148C92.7863 6.26611 87.6167 8.94909 88.2524 12.8792C88.4072 13.84 89.4001 14.1317 88.649 15.4575C86.9175 15.074 86.401 13.7083 86.4674 11.8876C86.5745 8.90742 89.1452 6.82071 91.7237 6.53194C94.9847 6.16696 98.0453 7.72937 98.4678 10.7967C98.9431 14.2587 96.9956 18.0079 93.5089 17.7387Z" fill="#F1F2F2"/>
</g>
<g clip-path="url(#clip2_557_94)">
<path d="M1.56257 1.70104C-0.402018 3.74166 6.51479e-05 5.90937 6.51479e-05 12.4948C6.51479e-05 17.9635 -0.954102 23.4458 4.03965 24.7365C5.59902 25.1375 19.4157 25.1375 20.973 24.7344C23.0522 24.1979 24.7438 22.5115 24.9751 19.5708C25.0074 19.1604 25.0074 5.83646 24.974 5.41771C24.7282 2.28541 22.8001 0.480206 20.2594 0.114581C19.6771 0.0302058 19.5605 0.0052058 16.573 -2.53692e-06C5.97611 0.0052058 3.65319 -0.466669 1.56257 1.70104Z" fill="url(#paint0_linear_557_94)"/>
<path d="M12.4979 3.26977C8.71563 3.26977 5.12397 2.93331 3.75209 6.45415C3.18543 7.90831 3.26772 9.79686 3.26772 12.501C3.26772 14.8739 3.19168 17.1041 3.75209 18.5469C5.12084 22.0698 8.74168 21.7323 12.4958 21.7323C16.1177 21.7323 19.8521 22.1094 21.2406 18.5469C21.8083 17.0781 21.725 15.2177 21.725 12.501C21.725 8.89477 21.924 6.56665 20.175 4.81873C18.4042 3.0479 16.0094 3.26977 12.4938 3.26977H12.4979ZM11.6708 4.93331C19.5604 4.92081 20.5646 4.04373 20.0104 16.2281C19.8135 20.5375 16.5323 20.0646 12.499 20.0646C5.1448 20.0646 4.93334 19.8541 4.93334 12.4969C4.93334 5.05415 5.51668 4.93748 11.6708 4.93123V4.93331ZM17.425 6.46561C16.8135 6.46561 16.3177 6.96144 16.3177 7.5729C16.3177 8.18436 16.8135 8.68019 17.425 8.68019C18.0365 8.68019 18.5323 8.18436 18.5323 7.5729C18.5323 6.96144 18.0365 6.46561 17.425 6.46561ZM12.4979 7.7604C9.88022 7.7604 7.75834 9.88332 7.75834 12.501C7.75834 15.1187 9.88022 17.2406 12.4979 17.2406C15.1156 17.2406 17.2365 15.1187 17.2365 12.501C17.2365 9.88332 15.1156 7.7604 12.4979 7.7604ZM12.4979 9.42394C16.5656 9.42394 16.5708 15.5781 12.4979 15.5781C8.43126 15.5781 8.42501 9.42394 12.4979 9.42394Z" fill="white"/>
</g>
<defs>
<linearGradient id="paint0_linear_557_94" x1="1.6105" y1="23.4032" x2="24.8454" y2="3.29372" gradientUnits="userSpaceOnUse">
<stop stop-color="#8E7F42"/>
<stop offset="0.5" stop-color="#FF543E"/>
<stop offset="1" stop-color="#C837AB"/>
</linearGradient>
<clipPath id="clip0_557_94">
<rect width="25" height="25" fill="white" transform="translate(40 1)"/>
</clipPath>
<clipPath id="clip1_557_94">
<rect width="25" height="25" fill="white" transform="translate(80 1)"/>
</clipPath>
<clipPath id="clip2_557_94">
<rect width="25" height="25" fill="white"/>
</clipPath>
</defs>
</svg>
