<svg width="255" height="85" viewBox="0 0 255 85" fill="none" xmlns="http://www.w3.org/2000/svg">
<path d="M18.918 6.23242H15.3379V10H14.2129V1.46875H19.498V2.39453H15.3379V5.3125H18.918V6.23242ZM23.5879 4.63281C23.4238 4.60547 23.2461 4.5918 23.0547 4.5918C22.3438 4.5918 21.8613 4.89453 21.6074 5.5V10H20.5234V3.66016H21.5781L21.5957 4.39258C21.9512 3.82617 22.4551 3.54297 23.1074 3.54297C23.3184 3.54297 23.4785 3.57031 23.5879 3.625V4.63281ZM24.1855 6.77148C24.1855 6.15039 24.3066 5.5918 24.5488 5.0957C24.7949 4.59961 25.1348 4.2168 25.5684 3.94727C26.0059 3.67773 26.5039 3.54297 27.0625 3.54297C27.9258 3.54297 28.623 3.8418 29.1543 4.43945C29.6895 5.03711 29.957 5.83203 29.957 6.82422V6.90039C29.957 7.51758 29.8379 8.07227 29.5996 8.56445C29.3652 9.05273 29.0273 9.43359 28.5859 9.70703C28.1484 9.98047 27.6445 10.1172 27.0742 10.1172C26.2148 10.1172 25.5176 9.81836 24.9824 9.2207C24.4512 8.62305 24.1855 7.83203 24.1855 6.84766V6.77148ZM25.2754 6.90039C25.2754 7.60352 25.4375 8.16797 25.7617 8.59375C26.0898 9.01953 26.5273 9.23242 27.0742 9.23242C27.625 9.23242 28.0625 9.01758 28.3867 8.58789C28.7109 8.1543 28.873 7.54883 28.873 6.77148C28.873 6.07617 28.707 5.51367 28.375 5.08398C28.0469 4.65039 27.6094 4.43359 27.0625 4.43359C26.5273 4.43359 26.0957 4.64648 25.7676 5.07227C25.4395 5.49805 25.2754 6.10742 25.2754 6.90039ZM32.3418 3.66016L32.377 4.45703C32.8613 3.84766 33.4941 3.54297 34.2754 3.54297C35.6152 3.54297 36.291 4.29883 36.3027 5.81055V10H35.2188V5.80469C35.2148 5.34766 35.1094 5.00977 34.9023 4.79102C34.6992 4.57227 34.3809 4.46289 33.9473 4.46289C33.5957 4.46289 33.2871 4.55664 33.0215 4.74414C32.7559 4.93164 32.5488 5.17773 32.4004 5.48242V10H31.3164V3.66016H32.3418ZM39.4082 2.125V3.66016H40.5918V4.49805H39.4082V8.42969C39.4082 8.68359 39.4609 8.875 39.5664 9.00391C39.6719 9.12891 39.8516 9.19141 40.1055 9.19141C40.2305 9.19141 40.4023 9.16797 40.6211 9.12109V10C40.3359 10.0781 40.0586 10.1172 39.7891 10.1172C39.3047 10.1172 38.9395 9.9707 38.6934 9.67773C38.4473 9.38477 38.3242 8.96875 38.3242 8.42969V4.49805H37.1699V3.66016H38.3242V2.125H39.4082ZM44.1191 6.81836H41.2598V5.93359H44.1191V6.81836ZM47.8105 10.1172C46.9512 10.1172 46.252 9.83594 45.7129 9.27344C45.1738 8.70703 44.9043 7.95117 44.9043 7.00586V6.80664C44.9043 6.17773 45.0234 5.61719 45.2617 5.125C45.5039 4.62891 45.8398 4.24219 46.2695 3.96484C46.7031 3.68359 47.1719 3.54297 47.6758 3.54297C48.5 3.54297 49.1406 3.81445 49.5977 4.35742C50.0547 4.90039 50.2832 5.67773 50.2832 6.68945V7.14062H45.9883C46.0039 7.76562 46.1855 8.27148 46.5332 8.6582C46.8848 9.04102 47.3301 9.23242 47.8691 9.23242C48.252 9.23242 48.5762 9.1543 48.8418 8.99805C49.1074 8.8418 49.3398 8.63477 49.5391 8.37695L50.2012 8.89258C49.6699 9.70898 48.873 10.1172 47.8105 10.1172ZM47.6758 4.43359C47.2383 4.43359 46.8711 4.59375 46.5742 4.91406C46.2773 5.23047 46.0938 5.67578 46.0234 6.25H49.1992V6.16797C49.168 5.61719 49.0195 5.19141 48.7539 4.89062C48.4883 4.58594 48.1289 4.43359 47.6758 4.43359ZM52.5684 3.66016L52.6035 4.45703C53.0879 3.84766 53.7207 3.54297 54.502 3.54297C55.8418 3.54297 56.5176 4.29883 56.5293 5.81055V10H55.4453V5.80469C55.4414 5.34766 55.3359 5.00977 55.1289 4.79102C54.9258 4.57227 54.6074 4.46289 54.1738 4.46289C53.8223 4.46289 53.5137 4.55664 53.248 4.74414C52.9824 4.93164 52.7754 5.17773 52.627 5.48242V10H51.543V3.66016H52.5684ZM57.9004 6.77734C57.9004 5.80469 58.1309 5.02344 58.5918 4.43359C59.0527 3.83984 59.6562 3.54297 60.4023 3.54297C61.1445 3.54297 61.7324 3.79688 62.166 4.30469V1H63.25V10H62.2539L62.2012 9.32031C61.7676 9.85156 61.1641 10.1172 60.3906 10.1172C59.6562 10.1172 59.0566 9.81641 58.5918 9.21484C58.1309 8.61328 57.9004 7.82812 57.9004 6.85938V6.77734ZM58.9844 6.90039C58.9844 7.61914 59.1328 8.18164 59.4297 8.58789C59.7266 8.99414 60.1367 9.19727 60.6602 9.19727C61.3477 9.19727 61.8496 8.88867 62.166 8.27148V5.35938C61.8418 4.76172 61.3438 4.46289 60.6719 4.46289C60.1406 4.46289 59.7266 4.66797 59.4297 5.07812C59.1328 5.48828 58.9844 6.0957 58.9844 6.90039ZM73.2695 6.90039C73.2695 7.86523 73.0488 8.64258 72.6074 9.23242C72.166 9.82227 71.5684 10.1172 70.8145 10.1172C70.0449 10.1172 69.4395 9.87305 68.998 9.38477V12.4375H67.9141V3.66016H68.9043L68.957 4.36328C69.3984 3.81641 70.0117 3.54297 70.7969 3.54297C71.5586 3.54297 72.1602 3.83008 72.6016 4.4043C73.0469 4.97852 73.2695 5.77734 73.2695 6.80078V6.90039ZM72.1855 6.77734C72.1855 6.0625 72.0332 5.49805 71.7285 5.08398C71.4238 4.66992 71.0059 4.46289 70.4746 4.46289C69.8184 4.46289 69.3262 4.75391 68.998 5.33594V8.36523C69.3223 8.94336 69.8184 9.23242 70.4863 9.23242C71.0059 9.23242 71.418 9.02734 71.7227 8.61719C72.0312 8.20312 72.1855 7.58984 72.1855 6.77734ZM78.5664 10C78.5039 9.875 78.4531 9.65234 78.4141 9.33203C77.9102 9.85547 77.3086 10.1172 76.6094 10.1172C75.9844 10.1172 75.4707 9.94141 75.0684 9.58984C74.6699 9.23438 74.4707 8.78516 74.4707 8.24219C74.4707 7.58203 74.7207 7.07031 75.2207 6.70703C75.7246 6.33984 76.4316 6.15625 77.3418 6.15625H78.3965V5.6582C78.3965 5.2793 78.2832 4.97852 78.0566 4.75586C77.8301 4.5293 77.4961 4.41602 77.0547 4.41602C76.668 4.41602 76.3438 4.51367 76.082 4.70898C75.8203 4.9043 75.6895 5.14062 75.6895 5.41797H74.5996C74.5996 5.10156 74.7109 4.79688 74.9336 4.50391C75.1602 4.20703 75.4648 3.97266 75.8477 3.80078C76.2344 3.62891 76.6582 3.54297 77.1191 3.54297C77.8496 3.54297 78.4219 3.72656 78.8359 4.09375C79.25 4.45703 79.4648 4.95898 79.4805 5.59961V8.51758C79.4805 9.09961 79.5547 9.5625 79.7031 9.90625V10H78.5664ZM76.7676 9.17383C77.1074 9.17383 77.4297 9.08594 77.7344 8.91016C78.0391 8.73438 78.2598 8.50586 78.3965 8.22461V6.92383H77.5469C76.2188 6.92383 75.5547 7.3125 75.5547 8.08984C75.5547 8.42969 75.668 8.69531 75.8945 8.88672C76.1211 9.07812 76.4121 9.17383 76.7676 9.17383ZM84.666 5.39453C84.666 5.09766 84.5527 4.86328 84.3262 4.69141C84.0996 4.51562 83.7891 4.42773 83.3945 4.42773C83.0117 4.42773 82.6914 4.52734 82.4336 4.72656C82.1797 4.92578 82.0527 5.16016 82.0527 5.42969H80.9746C80.9746 4.87891 81.2051 4.42773 81.666 4.07617C82.127 3.72461 82.7031 3.54883 83.3945 3.54883C84.1367 3.54883 84.7148 3.70898 85.1289 4.0293C85.543 4.3457 85.75 4.79883 85.75 5.38867C85.75 5.67383 85.6641 5.93555 85.4922 6.17383C85.3203 6.41211 85.0762 6.60156 84.7598 6.74219C85.498 6.99219 85.8672 7.48438 85.8672 8.21875C85.8672 8.80078 85.6426 9.26172 85.1934 9.60156C84.7441 9.94141 84.1445 10.1113 83.3945 10.1113C82.6641 10.1113 82.0605 9.93359 81.584 9.57812C81.1113 9.21875 80.875 8.73438 80.875 8.125H81.9531C81.9531 8.43359 82.0898 8.69922 82.3633 8.92188C82.6406 9.14062 82.9844 9.25 83.3945 9.25C83.8086 9.25 84.1426 9.1543 84.3965 8.96289C84.6504 8.77148 84.7773 8.52344 84.7773 8.21875C84.7773 7.86328 84.6699 7.60938 84.4551 7.45703C84.2441 7.30078 83.9141 7.22266 83.4648 7.22266H82.3809V6.30859H83.5586C84.2969 6.28906 84.666 5.98438 84.666 5.39453ZM92.6289 6.90039C92.6289 7.86523 92.4082 8.64258 91.9668 9.23242C91.5254 9.82227 90.9277 10.1172 90.1738 10.1172C89.4043 10.1172 88.7988 9.87305 88.3574 9.38477V12.4375H87.2734V3.66016H88.2637L88.3164 4.36328C88.7578 3.81641 89.3711 3.54297 90.1562 3.54297C90.918 3.54297 91.5195 3.83008 91.9609 4.4043C92.4062 4.97852 92.6289 5.77734 92.6289 6.80078V6.90039ZM91.5449 6.77734C91.5449 6.0625 91.3926 5.49805 91.0879 5.08398C90.7832 4.66992 90.3652 4.46289 89.834 4.46289C89.1777 4.46289 88.6855 4.75391 88.3574 5.33594V8.36523C88.6816 8.94336 89.1777 9.23242 89.8457 9.23242C90.3652 9.23242 90.7773 9.02734 91.082 8.61719C91.3906 8.20312 91.5449 7.58984 91.5449 6.77734ZM97.9258 10C97.8633 9.875 97.8125 9.65234 97.7734 9.33203C97.2695 9.85547 96.668 10.1172 95.9688 10.1172C95.3438 10.1172 94.8301 9.94141 94.4277 9.58984C94.0293 9.23438 93.8301 8.78516 93.8301 8.24219C93.8301 7.58203 94.0801 7.07031 94.5801 6.70703C95.084 6.33984 95.791 6.15625 96.7012 6.15625H97.7559V5.6582C97.7559 5.2793 97.6426 4.97852 97.416 4.75586C97.1895 4.5293 96.8555 4.41602 96.4141 4.41602C96.0273 4.41602 95.7031 4.51367 95.4414 4.70898C95.1797 4.9043 95.0488 5.14062 95.0488 5.41797H93.959C93.959 5.10156 94.0703 4.79688 94.293 4.50391C94.5195 4.20703 94.8242 3.97266 95.207 3.80078C95.5938 3.62891 96.0176 3.54297 96.4785 3.54297C97.209 3.54297 97.7812 3.72656 98.1953 4.09375C98.6094 4.45703 98.8242 4.95898 98.8398 5.59961V8.51758C98.8398 9.09961 98.9141 9.5625 99.0625 9.90625V10H97.9258ZM96.127 9.17383C96.4668 9.17383 96.7891 9.08594 97.0938 8.91016C97.3984 8.73438 97.6191 8.50586 97.7559 8.22461V6.92383H96.9062C95.5781 6.92383 94.9141 7.3125 94.9141 8.08984C94.9141 8.42969 95.0273 8.69531 95.2539 8.88672C95.4805 9.07812 95.7715 9.17383 96.127 9.17383ZM103.322 4.02344C104.119 4.02344 104.756 4.29102 105.232 4.82617C105.713 5.35742 105.953 6.05859 105.953 6.92969V7.0293C105.953 7.62695 105.838 8.16211 105.607 8.63477C105.377 9.10352 105.045 9.46875 104.611 9.73047C104.182 9.98828 103.686 10.1172 103.123 10.1172C102.271 10.1172 101.586 9.83398 101.066 9.26758C100.547 8.69727 100.287 7.93359 100.287 6.97656V6.44922C100.287 5.11719 100.533 4.05859 101.025 3.27344C101.521 2.48828 102.252 2.00977 103.217 1.83789C103.764 1.74023 104.133 1.62109 104.324 1.48047C104.516 1.33984 104.611 1.14648 104.611 0.900391H105.502C105.502 1.38867 105.391 1.76953 105.168 2.04297C104.949 2.31641 104.598 2.50977 104.113 2.62305L103.305 2.80469C102.66 2.95703 102.176 3.21484 101.852 3.57812C101.531 3.9375 101.322 4.41797 101.225 5.01953C101.799 4.35547 102.498 4.02344 103.322 4.02344ZM103.111 4.91406C102.58 4.91406 102.158 5.09375 101.846 5.45312C101.533 5.80859 101.377 6.30273 101.377 6.93555V7.0293C101.377 7.70898 101.533 8.24805 101.846 8.64648C102.162 9.04102 102.588 9.23828 103.123 9.23828C103.662 9.23828 104.088 9.03906 104.4 8.64062C104.713 8.24219 104.869 7.66016 104.869 6.89453C104.869 6.29688 104.711 5.81836 104.395 5.45898C104.082 5.0957 103.654 4.91406 103.111 4.91406ZM106.885 6.77148C106.885 6.15039 107.006 5.5918 107.248 5.0957C107.494 4.59961 107.834 4.2168 108.268 3.94727C108.705 3.67773 109.203 3.54297 109.762 3.54297C110.625 3.54297 111.322 3.8418 111.854 4.43945C112.389 5.03711 112.656 5.83203 112.656 6.82422V6.90039C112.656 7.51758 112.537 8.07227 112.299 8.56445C112.064 9.05273 111.727 9.43359 111.285 9.70703C110.848 9.98047 110.344 10.1172 109.773 10.1172C108.914 10.1172 108.217 9.81836 107.682 9.2207C107.15 8.62305 106.885 7.83203 106.885 6.84766V6.77148ZM107.975 6.90039C107.975 7.60352 108.137 8.16797 108.461 8.59375C108.789 9.01953 109.227 9.23242 109.773 9.23242C110.324 9.23242 110.762 9.01758 111.086 8.58789C111.41 8.1543 111.572 7.54883 111.572 6.77148C111.572 6.07617 111.406 5.51367 111.074 5.08398C110.746 4.65039 110.309 4.43359 109.762 4.43359C109.227 4.43359 108.795 4.64648 108.467 5.07227C108.139 5.49805 107.975 6.10742 107.975 6.90039ZM118.598 4.53906H116.471V10H115.387V4.53906H113.301V3.66016H118.598V4.53906ZM124.439 10H123.35V7.70312C122.873 7.82812 122.385 7.89062 121.885 7.89062C121.092 7.89062 120.486 7.6875 120.068 7.28125C119.654 6.875 119.443 6.29688 119.436 5.54688V3.6543H120.52V5.58203C120.539 6.52734 120.994 7 121.885 7C122.385 7 122.873 6.9375 123.35 6.8125V3.66016H124.439V10ZM130.281 3.66016H131.365V10H130.281V5.37695L127.357 10H126.273V3.66016H127.357V8.28906L130.281 3.66016ZM135.08 7.29883H134.289V10H133.199V3.66016H134.289V6.34375H134.998L137.131 3.66016H138.443L135.936 6.70703L138.654 10H137.277L135.08 7.29883ZM139.609 9.43164C139.609 9.24414 139.664 9.08789 139.773 8.96289C139.887 8.83789 140.055 8.77539 140.277 8.77539C140.5 8.77539 140.668 8.83789 140.781 8.96289C140.898 9.08789 140.957 9.24414 140.957 9.43164C140.957 9.61133 140.898 9.76172 140.781 9.88281C140.668 10.0039 140.5 10.0645 140.277 10.0645C140.055 10.0645 139.887 10.0039 139.773 9.88281C139.664 9.76172 139.609 9.61133 139.609 9.43164ZM152.412 10H151.281V2.39453H147.074V10H145.949V1.46875H152.412V10ZM159.648 6.90039C159.648 7.86523 159.428 8.64258 158.986 9.23242C158.545 9.82227 157.947 10.1172 157.193 10.1172C156.424 10.1172 155.818 9.87305 155.377 9.38477V12.4375H154.293V3.66016H155.283L155.336 4.36328C155.777 3.81641 156.391 3.54297 157.176 3.54297C157.938 3.54297 158.539 3.83008 158.98 4.4043C159.426 4.97852 159.648 5.77734 159.648 6.80078V6.90039ZM158.564 6.77734C158.564 6.0625 158.412 5.49805 158.107 5.08398C157.803 4.66992 157.385 4.46289 156.854 4.46289C156.197 4.46289 155.705 4.75391 155.377 5.33594V8.36523C155.701 8.94336 156.197 9.23242 156.865 9.23242C157.385 9.23242 157.797 9.02734 158.102 8.61719C158.41 8.20312 158.564 7.58984 158.564 6.77734ZM164.945 10C164.883 9.875 164.832 9.65234 164.793 9.33203C164.289 9.85547 163.688 10.1172 162.988 10.1172C162.363 10.1172 161.85 9.94141 161.447 9.58984C161.049 9.23438 160.85 8.78516 160.85 8.24219C160.85 7.58203 161.1 7.07031 161.6 6.70703C162.104 6.33984 162.811 6.15625 163.721 6.15625H164.775V5.6582C164.775 5.2793 164.662 4.97852 164.436 4.75586C164.209 4.5293 163.875 4.41602 163.434 4.41602C163.047 4.41602 162.723 4.51367 162.461 4.70898C162.199 4.9043 162.068 5.14062 162.068 5.41797H160.979C160.979 5.10156 161.09 4.79688 161.312 4.50391C161.539 4.20703 161.844 3.97266 162.227 3.80078C162.613 3.62891 163.037 3.54297 163.498 3.54297C164.229 3.54297 164.801 3.72656 165.215 4.09375C165.629 4.45703 165.844 4.95898 165.859 5.59961V8.51758C165.859 9.09961 165.934 9.5625 166.082 9.90625V10H164.945ZM163.146 9.17383C163.486 9.17383 163.809 9.08594 164.113 8.91016C164.418 8.73438 164.639 8.50586 164.775 8.22461V6.92383H163.926C162.598 6.92383 161.934 7.3125 161.934 8.08984C161.934 8.42969 162.047 8.69531 162.273 8.88672C162.5 9.07812 162.791 9.17383 163.146 9.17383ZM169.533 7.29883H168.742V10H167.652V3.66016H168.742V6.34375H169.451L171.584 3.66016H172.896L170.389 6.70703L173.107 10H171.73L169.533 7.29883ZM178.75 4.53906H176.623V10H175.539V4.53906H173.453V3.66016H178.75V4.53906ZM183.906 3.66016H184.99V10H183.906V5.37695L180.982 10H179.898V3.66016H180.982V8.28906L183.906 3.66016ZM188.705 7.29883H187.914V10H186.824V3.66016H187.914V6.34375H188.623L190.756 3.66016H192.068L189.561 6.70703L192.279 10H190.902L188.705 7.29883ZM196.287 10V3.66016H198.76C199.604 3.66016 200.25 3.80859 200.699 4.10547C201.152 4.39844 201.379 4.83008 201.379 5.40039C201.379 5.69336 201.291 5.95898 201.115 6.19727C200.939 6.43164 200.68 6.61133 200.336 6.73633C200.719 6.82617 201.025 7.00195 201.256 7.26367C201.49 7.52539 201.607 7.83789 201.607 8.20117C201.607 8.7832 201.393 9.22852 200.963 9.53711C200.537 9.8457 199.934 10 199.152 10H196.287ZM197.371 7.2168V9.12695H199.164C199.617 9.12695 199.955 9.04297 200.178 8.875C200.404 8.70703 200.518 8.4707 200.518 8.16602C200.518 7.5332 200.053 7.2168 199.123 7.2168H197.371ZM197.371 6.34961H198.771C199.787 6.34961 200.295 6.05273 200.295 5.45898C200.295 4.86523 199.814 4.55859 198.854 4.53906H197.371V6.34961ZM205.674 10.1172C204.814 10.1172 204.115 9.83594 203.576 9.27344C203.037 8.70703 202.768 7.95117 202.768 7.00586V6.80664C202.768 6.17773 202.887 5.61719 203.125 5.125C203.367 4.62891 203.703 4.24219 204.133 3.96484C204.566 3.68359 205.035 3.54297 205.539 3.54297C206.363 3.54297 207.004 3.81445 207.461 4.35742C207.918 4.90039 208.146 5.67773 208.146 6.68945V7.14062H203.852C203.867 7.76562 204.049 8.27148 204.396 8.6582C204.748 9.04102 205.193 9.23242 205.732 9.23242C206.115 9.23242 206.439 9.1543 206.705 8.99805C206.971 8.8418 207.203 8.63477 207.402 8.37695L208.064 8.89258C207.533 9.70898 206.736 10.1172 205.674 10.1172ZM205.539 4.43359C205.102 4.43359 204.734 4.59375 204.438 4.91406C204.141 5.23047 203.957 5.67578 203.887 6.25H207.062V6.16797C207.031 5.61719 206.883 5.19141 206.617 4.89062C206.352 4.58594 205.992 4.43359 205.539 4.43359ZM214.762 6.90039C214.762 7.86523 214.541 8.64258 214.1 9.23242C213.658 9.82227 213.061 10.1172 212.307 10.1172C211.537 10.1172 210.932 9.87305 210.49 9.38477V12.4375H209.406V3.66016H210.396L210.449 4.36328C210.891 3.81641 211.504 3.54297 212.289 3.54297C213.051 3.54297 213.652 3.83008 214.094 4.4043C214.539 4.97852 214.762 5.77734 214.762 6.80078V6.90039ZM213.678 6.77734C213.678 6.0625 213.525 5.49805 213.221 5.08398C212.916 4.66992 212.498 4.46289 211.967 4.46289C211.311 4.46289 210.818 4.75391 210.49 5.33594V8.36523C210.814 8.94336 211.311 9.23242 211.979 9.23242C212.498 9.23242 212.91 9.02734 213.215 8.61719C213.523 8.20312 213.678 7.58984 213.678 6.77734ZM218.688 9.23242C219.074 9.23242 219.412 9.11523 219.701 8.88086C219.99 8.64648 220.15 8.35352 220.182 8.00195H221.207C221.188 8.36523 221.062 8.71094 220.832 9.03906C220.602 9.36719 220.293 9.62891 219.906 9.82422C219.523 10.0195 219.117 10.1172 218.688 10.1172C217.824 10.1172 217.137 9.83008 216.625 9.25586C216.117 8.67773 215.863 7.88867 215.863 6.88867V6.70703C215.863 6.08984 215.977 5.54102 216.203 5.06055C216.43 4.58008 216.754 4.20703 217.176 3.94141C217.602 3.67578 218.104 3.54297 218.682 3.54297C219.393 3.54297 219.982 3.75586 220.451 4.18164C220.924 4.60742 221.176 5.16016 221.207 5.83984H220.182C220.15 5.42969 219.994 5.09375 219.713 4.83203C219.436 4.56641 219.092 4.43359 218.682 4.43359C218.131 4.43359 217.703 4.63281 217.398 5.03125C217.098 5.42578 216.947 5.99805 216.947 6.74805V6.95312C216.947 7.68359 217.098 8.24609 217.398 8.64062C217.699 9.03516 218.129 9.23242 218.688 9.23242ZM227.137 4.53906H225.01V10H223.926V4.53906H221.84V3.66016H227.137V4.53906ZM230.166 7.29883H229.375V10H228.285V3.66016H229.375V6.34375H230.084L232.217 3.66016H233.529L231.021 6.70703L233.74 10H232.363L230.166 7.29883ZM238.773 3.66016H239.857V10H238.773V5.37695L235.85 10H234.766V3.66016H235.85V8.28906L238.773 3.66016ZM15.1738 27.2324C15.5605 27.2324 15.8984 27.1152 16.1875 26.8809C16.4766 26.6465 16.6367 26.3535 16.668 26.002H17.6934C17.6738 26.3652 17.5488 26.7109 17.3184 27.0391C17.0879 27.3672 16.7793 27.6289 16.3926 27.8242C16.0098 28.0195 15.6035 28.1172 15.1738 28.1172C14.3105 28.1172 13.623 27.8301 13.1113 27.2559C12.6035 26.6777 12.3496 25.8887 12.3496 24.8887V24.707C12.3496 24.0898 12.4629 23.541 12.6895 23.0605C12.916 22.5801 13.2402 22.207 13.6621 21.9414C14.0879 21.6758 14.5898 21.543 15.168 21.543C15.8789 21.543 16.4688 21.7559 16.9375 22.1816C17.4102 22.6074 17.6621 23.1602 17.6934 23.8398H16.668C16.6367 23.4297 16.4805 23.0938 16.1992 22.832C15.9219 22.5664 15.5781 22.4336 15.168 22.4336C14.6172 22.4336 14.1895 22.6328 13.8848 23.0312C13.584 23.4258 13.4336 23.998 13.4336 24.748V24.9531C13.4336 25.6836 13.584 26.2461 13.8848 26.6406C14.1855 27.0352 14.6152 27.2324 15.1738 27.2324ZM22.8262 28C22.7637 27.875 22.7129 27.6523 22.6738 27.332C22.1699 27.8555 21.5684 28.1172 20.8691 28.1172C20.2441 28.1172 19.7305 27.9414 19.3281 27.5898C18.9297 27.2344 18.7305 26.7852 18.7305 26.2422C18.7305 25.582 18.9805 25.0703 19.4805 24.707C19.9844 24.3398 20.6914 24.1562 21.6016 24.1562H22.6562V23.6582C22.6562 23.2793 22.543 22.9785 22.3164 22.7559C22.0898 22.5293 21.7559 22.416 21.3145 22.416C20.9277 22.416 20.6035 22.5137 20.3418 22.709C20.0801 22.9043 19.9492 23.1406 19.9492 23.418H18.8594C18.8594 23.1016 18.9707 22.7969 19.1934 22.5039C19.4199 22.207 19.7246 21.9727 20.1074 21.8008C20.4941 21.6289 20.918 21.543 21.3789 21.543C22.1094 21.543 22.6816 21.7266 23.0957 22.0938C23.5098 22.457 23.7246 22.959 23.7402 23.5996V26.5176C23.7402 27.0996 23.8145 27.5625 23.9629 27.9062V28H22.8262ZM21.0273 27.1738C21.3672 27.1738 21.6895 27.0859 21.9941 26.9102C22.2988 26.7344 22.5195 26.5059 22.6562 26.2246V24.9238H21.8066C20.4785 24.9238 19.8145 25.3125 19.8145 26.0898C19.8145 26.4297 19.9277 26.6953 20.1543 26.8867C20.3809 27.0781 20.6719 27.1738 21.0273 27.1738ZM29.541 21.6602H30.625V28H29.541V23.377L26.6172 28H25.5332V21.6602H26.6172V26.2891L29.541 21.6602ZM29.834 19.3516C29.834 19.8242 29.6719 20.2051 29.3477 20.4941C29.0273 20.7793 28.6055 20.9219 28.082 20.9219C27.5586 20.9219 27.1348 20.7773 26.8105 20.4883C26.4863 20.1992 26.3242 19.8203 26.3242 19.3516H27.209C27.209 19.625 27.2832 19.8398 27.4316 19.9961C27.5801 20.1484 27.7969 20.2246 28.082 20.2246C28.3555 20.2246 28.5684 20.1484 28.7207 19.9961C28.877 19.8438 28.9551 19.6289 28.9551 19.3516H29.834ZM37.0762 22.5391H34.9492V28H33.8652V22.5391H31.7793V21.6602H37.0762V22.5391ZM37.5977 24.7715C37.5977 24.1504 37.7188 23.5918 37.9609 23.0957C38.207 22.5996 38.5469 22.2168 38.9805 21.9473C39.418 21.6777 39.916 21.543 40.4746 21.543C41.3379 21.543 42.0352 21.8418 42.5664 22.4395C43.1016 23.0371 43.3691 23.832 43.3691 24.8242V24.9004C43.3691 25.5176 43.25 26.0723 43.0117 26.5645C42.7773 27.0527 42.4395 27.4336 41.998 27.707C41.5605 27.9805 41.0566 28.1172 40.4863 28.1172C39.627 28.1172 38.9297 27.8184 38.3945 27.2207C37.8633 26.623 37.5977 25.832 37.5977 24.8477V24.7715ZM38.6875 24.9004C38.6875 25.6035 38.8496 26.168 39.1738 26.5938C39.502 27.0195 39.9395 27.2324 40.4863 27.2324C41.0371 27.2324 41.4746 27.0176 41.7988 26.5879C42.123 26.1543 42.2852 25.5488 42.2852 24.7715C42.2852 24.0762 42.1191 23.5137 41.7871 23.084C41.459 22.6504 41.0215 22.4336 40.4746 22.4336C39.9395 22.4336 39.5078 22.6465 39.1797 23.0723C38.8516 23.498 38.6875 24.1074 38.6875 24.9004ZM44.8281 28V21.6602H47.3008C48.1445 21.6602 48.791 21.8086 49.2402 22.1055C49.6934 22.3984 49.9199 22.8301 49.9199 23.4004C49.9199 23.6934 49.832 23.959 49.6562 24.1973C49.4805 24.4316 49.2207 24.6113 48.877 24.7363C49.2598 24.8262 49.5664 25.002 49.7969 25.2637C50.0312 25.5254 50.1484 25.8379 50.1484 26.2012C50.1484 26.7832 49.9336 27.2285 49.5039 27.5371C49.0781 27.8457 48.4746 28 47.6934 28H44.8281ZM45.9121 25.2168V27.127H47.7051C48.1582 27.127 48.4961 27.043 48.7188 26.875C48.9453 26.707 49.0586 26.4707 49.0586 26.166C49.0586 25.5332 48.5938 25.2168 47.6641 25.2168H45.9121ZM45.9121 24.3496H47.3125C48.3281 24.3496 48.8359 24.0527 48.8359 23.459C48.8359 22.8652 48.3555 22.5586 47.3945 22.5391H45.9121V24.3496ZM51.6074 27.4316C51.6074 27.2441 51.6621 27.0879 51.7715 26.9629C51.8848 26.8379 52.0527 26.7754 52.2754 26.7754C52.498 26.7754 52.666 26.8379 52.7793 26.9629C52.8965 27.0879 52.9551 27.2441 52.9551 27.4316C52.9551 27.6113 52.8965 27.7617 52.7793 27.8828C52.666 28.0039 52.498 28.0645 52.2754 28.0645C52.0527 28.0645 51.8848 28.0039 51.7715 27.8828C51.6621 27.7617 51.6074 27.6113 51.6074 27.4316ZM67.1465 25.293C67.041 26.1953 66.707 26.8926 66.1445 27.3848C65.5859 27.873 64.8418 28.1172 63.9121 28.1172C62.9043 28.1172 62.0957 27.7559 61.4863 27.0332C60.8809 26.3105 60.5781 25.3438 60.5781 24.1328V23.3125C60.5781 22.5195 60.7188 21.8223 61 21.2207C61.2852 20.6191 61.6875 20.1582 62.207 19.8379C62.7266 19.5137 63.3281 19.3516 64.0117 19.3516C64.918 19.3516 65.6445 19.6055 66.1914 20.1133C66.7383 20.6172 67.0566 21.3164 67.1465 22.2109H66.0156C65.918 21.5312 65.7051 21.0391 65.377 20.7344C65.0527 20.4297 64.5977 20.2773 64.0117 20.2773C63.293 20.2773 62.7285 20.543 62.3184 21.0742C61.9121 21.6055 61.709 22.3613 61.709 23.3418V24.168C61.709 25.0938 61.9023 25.8301 62.2891 26.377C62.6758 26.9238 63.2168 27.1973 63.9121 27.1973C64.5371 27.1973 65.0156 27.0566 65.3477 26.7754C65.6836 26.4902 65.9062 25.9961 66.0156 25.293H67.1465ZM68.2305 24.7715C68.2305 24.1504 68.3516 23.5918 68.5938 23.0957C68.8398 22.5996 69.1797 22.2168 69.6133 21.9473C70.0508 21.6777 70.5488 21.543 71.1074 21.543C71.9707 21.543 72.668 21.8418 73.1992 22.4395C73.7344 23.0371 74.002 23.832 74.002 24.8242V24.9004C74.002 25.5176 73.8828 26.0723 73.6445 26.5645C73.4102 27.0527 73.0723 27.4336 72.6309 27.707C72.1934 27.9805 71.6895 28.1172 71.1191 28.1172C70.2598 28.1172 69.5625 27.8184 69.0273 27.2207C68.4961 26.623 68.2305 25.832 68.2305 24.8477V24.7715ZM69.3203 24.9004C69.3203 25.6035 69.4824 26.168 69.8066 26.5938C70.1348 27.0195 70.5723 27.2324 71.1191 27.2324C71.6699 27.2324 72.1074 27.0176 72.4316 26.5879C72.7559 26.1543 72.918 25.5488 72.918 24.7715C72.918 24.0762 72.752 23.5137 72.4199 23.084C72.0918 22.6504 71.6543 22.4336 71.1074 22.4336C70.5723 22.4336 70.1406 22.6465 69.8125 23.0723C69.4844 23.498 69.3203 24.1074 69.3203 24.9004ZM78.8477 23.3945C78.8477 23.0977 78.7344 22.8633 78.5078 22.6914C78.2812 22.5156 77.9707 22.4277 77.5762 22.4277C77.1934 22.4277 76.873 22.5273 76.6152 22.7266C76.3613 22.9258 76.2344 23.1602 76.2344 23.4297H75.1562C75.1562 22.8789 75.3867 22.4277 75.8477 22.0762C76.3086 21.7246 76.8848 21.5488 77.5762 21.5488C78.3184 21.5488 78.8965 21.709 79.3105 22.0293C79.7246 22.3457 79.9316 22.7988 79.9316 23.3887C79.9316 23.6738 79.8457 23.9355 79.6738 24.1738C79.502 24.4121 79.2578 24.6016 78.9414 24.7422C79.6797 24.9922 80.0488 25.4844 80.0488 26.2188C80.0488 26.8008 79.8242 27.2617 79.375 27.6016C78.9258 27.9414 78.3262 28.1113 77.5762 28.1113C76.8457 28.1113 76.2422 27.9336 75.7656 27.5781C75.293 27.2188 75.0566 26.7344 75.0566 26.125H76.1348C76.1348 26.4336 76.2715 26.6992 76.5449 26.9219C76.8223 27.1406 77.166 27.25 77.5762 27.25C77.9902 27.25 78.3242 27.1543 78.5781 26.9629C78.832 26.7715 78.959 26.5234 78.959 26.2188C78.959 25.8633 78.8516 25.6094 78.6367 25.457C78.4258 25.3008 78.0957 25.2227 77.6465 25.2227H76.5625V24.3086H77.7402C78.4785 24.2891 78.8477 23.9844 78.8477 23.3945ZM81.4023 27.1152L81.7773 26.6523C82.1992 26.1055 82.4395 25.2852 82.498 24.1914L82.5977 21.6602H86.6816V27.1152H87.4961V29.8633H86.4121V28H81.9883V29.8633H80.9043L80.9102 27.1152H81.4023ZM82.6855 27.1152H85.5977V22.6621H83.6465L83.582 24.1738C83.5156 25.4355 83.2168 26.416 82.6855 27.1152ZM92.6113 28C92.5488 27.875 92.498 27.6523 92.459 27.332C91.9551 27.8555 91.3535 28.1172 90.6543 28.1172C90.0293 28.1172 89.5156 27.9414 89.1133 27.5898C88.7148 27.2344 88.5156 26.7852 88.5156 26.2422C88.5156 25.582 88.7656 25.0703 89.2656 24.707C89.7695 24.3398 90.4766 24.1562 91.3867 24.1562H92.4414V23.6582C92.4414 23.2793 92.3281 22.9785 92.1016 22.7559C91.875 22.5293 91.541 22.416 91.0996 22.416C90.7129 22.416 90.3887 22.5137 90.127 22.709C89.8652 22.9043 89.7344 23.1406 89.7344 23.418H88.6445C88.6445 23.1016 88.7559 22.7969 88.9785 22.5039C89.2051 22.207 89.5098 21.9727 89.8926 21.8008C90.2793 21.6289 90.7031 21.543 91.1641 21.543C91.8945 21.543 92.4668 21.7266 92.8809 22.0938C93.2949 22.457 93.5098 22.959 93.5254 23.5996V26.5176C93.5254 27.0996 93.5996 27.5625 93.748 27.9062V28H92.6113ZM90.8125 27.1738C91.1523 27.1738 91.4746 27.0859 91.7793 26.9102C92.084 26.7344 92.3047 26.5059 92.4414 26.2246V24.9238H91.5918C90.2637 24.9238 89.5996 25.3125 89.5996 26.0898C89.5996 26.4297 89.7129 26.6953 89.9395 26.8867C90.166 27.0781 90.457 27.1738 90.8125 27.1738ZM100.404 28H99.3203V25.293H96.4082V28H95.3184V21.6602H96.4082V24.4082H99.3203V21.6602H100.404V28ZM106.252 21.6602H107.336V28H106.252V23.377L103.328 28H102.244V21.6602H103.328V26.2891L106.252 21.6602ZM111.707 28.1172C110.848 28.1172 110.148 27.8359 109.609 27.2734C109.07 26.707 108.801 25.9512 108.801 25.0059V24.8066C108.801 24.1777 108.92 23.6172 109.158 23.125C109.4 22.6289 109.736 22.2422 110.166 21.9648C110.6 21.6836 111.068 21.543 111.572 21.543C112.396 21.543 113.037 21.8145 113.494 22.3574C113.951 22.9004 114.18 23.6777 114.18 24.6895V25.1406H109.885C109.9 25.7656 110.082 26.2715 110.43 26.6582C110.781 27.041 111.227 27.2324 111.766 27.2324C112.148 27.2324 112.473 27.1543 112.738 26.998C113.004 26.8418 113.236 26.6348 113.436 26.377L114.098 26.8926C113.566 27.709 112.77 28.1172 111.707 28.1172ZM111.572 22.4336C111.135 22.4336 110.768 22.5938 110.471 22.9141C110.174 23.2305 109.99 23.6758 109.92 24.25H113.096V24.168C113.064 23.6172 112.916 23.1914 112.65 22.8906C112.385 22.5859 112.025 22.4336 111.572 22.4336ZM119.09 26.5645L121.246 21.6602H122.6V28H121.516V23.3887L119.465 28H118.715L116.623 23.2891V28H115.539V21.6602H116.945L119.09 26.5645ZM129.865 27.2324C130.252 27.2324 130.59 27.1152 130.879 26.8809C131.168 26.6465 131.328 26.3535 131.359 26.002H132.385C132.365 26.3652 132.24 26.7109 132.01 27.0391C131.779 27.3672 131.471 27.6289 131.084 27.8242C130.701 28.0195 130.295 28.1172 129.865 28.1172C129.002 28.1172 128.314 27.8301 127.803 27.2559C127.295 26.6777 127.041 25.8887 127.041 24.8887V24.707C127.041 24.0898 127.154 23.541 127.381 23.0605C127.607 22.5801 127.932 22.207 128.354 21.9414C128.779 21.6758 129.281 21.543 129.859 21.543C130.57 21.543 131.16 21.7559 131.629 22.1816C132.102 22.6074 132.354 23.1602 132.385 23.8398H131.359C131.328 23.4297 131.172 23.0938 130.891 22.832C130.613 22.5664 130.27 22.4336 129.859 22.4336C129.309 22.4336 128.881 22.6328 128.576 23.0312C128.275 23.4258 128.125 23.998 128.125 24.748V24.9531C128.125 25.6836 128.275 26.2461 128.576 26.6406C128.877 27.0352 129.307 27.2324 129.865 27.2324ZM137.518 28C137.455 27.875 137.404 27.6523 137.365 27.332C136.861 27.8555 136.26 28.1172 135.561 28.1172C134.936 28.1172 134.422 27.9414 134.02 27.5898C133.621 27.2344 133.422 26.7852 133.422 26.2422C133.422 25.582 133.672 25.0703 134.172 24.707C134.676 24.3398 135.383 24.1562 136.293 24.1562H137.348V23.6582C137.348 23.2793 137.234 22.9785 137.008 22.7559C136.781 22.5293 136.447 22.416 136.006 22.416C135.619 22.416 135.295 22.5137 135.033 22.709C134.771 22.9043 134.641 23.1406 134.641 23.418H133.551C133.551 23.1016 133.662 22.7969 133.885 22.5039C134.111 22.207 134.416 21.9727 134.799 21.8008C135.186 21.6289 135.609 21.543 136.07 21.543C136.801 21.543 137.373 21.7266 137.787 22.0938C138.201 22.457 138.416 22.959 138.432 23.5996V26.5176C138.432 27.0996 138.506 27.5625 138.654 27.9062V28H137.518ZM135.719 27.1738C136.059 27.1738 136.381 27.0859 136.686 26.9102C136.99 26.7344 137.211 26.5059 137.348 26.2246V24.9238H136.498C135.17 24.9238 134.506 25.3125 134.506 26.0898C134.506 26.4297 134.619 26.6953 134.846 26.8867C135.072 27.0781 135.363 27.1738 135.719 27.1738ZM144.232 21.6602H145.316V28H144.232V23.377L141.309 28H140.225V21.6602H141.309V26.2891L144.232 21.6602ZM144.525 19.3516C144.525 19.8242 144.363 20.2051 144.039 20.4941C143.719 20.7793 143.297 20.9219 142.773 20.9219C142.25 20.9219 141.826 20.7773 141.502 20.4883C141.178 20.1992 141.016 19.8203 141.016 19.3516H141.9C141.9 19.625 141.975 19.8398 142.123 19.9961C142.271 20.1484 142.488 20.2246 142.773 20.2246C143.047 20.2246 143.26 20.1484 143.412 19.9961C143.568 19.8438 143.646 19.6289 143.646 19.3516H144.525ZM151.768 22.5391H149.641V28H148.557V22.5391H146.471V21.6602H151.768V22.5391ZM152.289 24.7715C152.289 24.1504 152.41 23.5918 152.652 23.0957C152.898 22.5996 153.238 22.2168 153.672 21.9473C154.109 21.6777 154.607 21.543 155.166 21.543C156.029 21.543 156.727 21.8418 157.258 22.4395C157.793 23.0371 158.061 23.832 158.061 24.8242V24.9004C158.061 25.5176 157.941 26.0723 157.703 26.5645C157.469 27.0527 157.131 27.4336 156.689 27.707C156.252 27.9805 155.748 28.1172 155.178 28.1172C154.318 28.1172 153.621 27.8184 153.086 27.2207C152.555 26.623 152.289 25.832 152.289 24.8477V24.7715ZM153.379 24.9004C153.379 25.6035 153.541 26.168 153.865 26.5938C154.193 27.0195 154.631 27.2324 155.178 27.2324C155.729 27.2324 156.166 27.0176 156.49 26.5879C156.814 26.1543 156.977 25.5488 156.977 24.7715C156.977 24.0762 156.811 23.5137 156.479 23.084C156.15 22.6504 155.713 22.4336 155.166 22.4336C154.631 22.4336 154.199 22.6465 153.871 23.0723C153.543 23.498 153.379 24.1074 153.379 24.9004ZM159.52 28V21.6602H161.992C162.836 21.6602 163.482 21.8086 163.932 22.1055C164.385 22.3984 164.611 22.8301 164.611 23.4004C164.611 23.6934 164.523 23.959 164.348 24.1973C164.172 24.4316 163.912 24.6113 163.568 24.7363C163.951 24.8262 164.258 25.002 164.488 25.2637C164.723 25.5254 164.84 25.8379 164.84 26.2012C164.84 26.7832 164.625 27.2285 164.195 27.5371C163.77 27.8457 163.166 28 162.385 28H159.52ZM160.604 25.2168V27.127H162.396C162.85 27.127 163.188 27.043 163.41 26.875C163.637 26.707 163.75 26.4707 163.75 26.166C163.75 25.5332 163.285 25.2168 162.355 25.2168H160.604ZM160.604 24.3496H162.004C163.02 24.3496 163.527 24.0527 163.527 23.459C163.527 22.8652 163.047 22.5586 162.086 22.5391H160.604V24.3496ZM172.738 23.3945C172.738 23.0977 172.625 22.8633 172.398 22.6914C172.172 22.5156 171.861 22.4277 171.467 22.4277C171.084 22.4277 170.764 22.5273 170.506 22.7266C170.252 22.9258 170.125 23.1602 170.125 23.4297H169.047C169.047 22.8789 169.277 22.4277 169.738 22.0762C170.199 21.7246 170.775 21.5488 171.467 21.5488C172.209 21.5488 172.787 21.709 173.201 22.0293C173.615 22.3457 173.822 22.7988 173.822 23.3887C173.822 23.6738 173.736 23.9355 173.564 24.1738C173.393 24.4121 173.148 24.6016 172.832 24.7422C173.57 24.9922 173.939 25.4844 173.939 26.2188C173.939 26.8008 173.715 27.2617 173.266 27.6016C172.816 27.9414 172.217 28.1113 171.467 28.1113C170.736 28.1113 170.133 27.9336 169.656 27.5781C169.184 27.2188 168.947 26.7344 168.947 26.125H170.025C170.025 26.4336 170.162 26.6992 170.436 26.9219C170.713 27.1406 171.057 27.25 171.467 27.25C171.881 27.25 172.215 27.1543 172.469 26.9629C172.723 26.7715 172.85 26.5234 172.85 26.2188C172.85 25.8633 172.742 25.6094 172.527 25.457C172.316 25.3008 171.986 25.2227 171.537 25.2227H170.453V24.3086H171.631C172.369 24.2891 172.738 23.9844 172.738 23.3945ZM179.26 28C179.197 27.875 179.146 27.6523 179.107 27.332C178.604 27.8555 178.002 28.1172 177.303 28.1172C176.678 28.1172 176.164 27.9414 175.762 27.5898C175.363 27.2344 175.164 26.7852 175.164 26.2422C175.164 25.582 175.414 25.0703 175.914 24.707C176.418 24.3398 177.125 24.1562 178.035 24.1562H179.09V23.6582C179.09 23.2793 178.977 22.9785 178.75 22.7559C178.523 22.5293 178.189 22.416 177.748 22.416C177.361 22.416 177.037 22.5137 176.775 22.709C176.514 22.9043 176.383 23.1406 176.383 23.418H175.293C175.293 23.1016 175.404 22.7969 175.627 22.5039C175.854 22.207 176.158 21.9727 176.541 21.8008C176.928 21.6289 177.352 21.543 177.812 21.543C178.543 21.543 179.115 21.7266 179.529 22.0938C179.943 22.457 180.158 22.959 180.174 23.5996V26.5176C180.174 27.0996 180.248 27.5625 180.396 27.9062V28H179.26ZM177.461 27.1738C177.801 27.1738 178.123 27.0859 178.428 26.9102C178.732 26.7344 178.953 26.5059 179.09 26.2246V24.9238H178.24C176.912 24.9238 176.248 25.3125 176.248 26.0898C176.248 26.4297 176.361 26.6953 176.588 26.8867C176.814 27.0781 177.105 27.1738 177.461 27.1738ZM187.053 28H185.969V25.293H183.057V28H181.967V21.6602H183.057V24.4082H185.969V21.6602H187.053V28ZM192.9 21.6602H193.984V28H192.9V23.377L189.977 28H188.893V21.6602H189.977V26.2891L192.9 21.6602ZM199.375 26.5645L201.531 21.6602H202.885V28H201.801V23.3887L199.75 28H199L196.908 23.2891V28H195.824V21.6602H197.23L199.375 26.5645ZM208.545 28C208.482 27.875 208.432 27.6523 208.393 27.332C207.889 27.8555 207.287 28.1172 206.588 28.1172C205.963 28.1172 205.449 27.9414 205.047 27.5898C204.648 27.2344 204.449 26.7852 204.449 26.2422C204.449 25.582 204.699 25.0703 205.199 24.707C205.703 24.3398 206.41 24.1562 207.32 24.1562H208.375V23.6582C208.375 23.2793 208.262 22.9785 208.035 22.7559C207.809 22.5293 207.475 22.416 207.033 22.416C206.646 22.416 206.322 22.5137 206.061 22.709C205.799 22.9043 205.668 23.1406 205.668 23.418H204.578C204.578 23.1016 204.689 22.7969 204.912 22.5039C205.139 22.207 205.443 21.9727 205.826 21.8008C206.213 21.6289 206.637 21.543 207.098 21.543C207.828 21.543 208.4 21.7266 208.814 22.0938C209.229 22.457 209.443 22.959 209.459 23.5996V26.5176C209.459 27.0996 209.533 27.5625 209.682 27.9062V28H208.545ZM206.746 27.1738C207.086 27.1738 207.408 27.0859 207.713 26.9102C208.018 26.7344 208.238 26.5059 208.375 26.2246V24.9238H207.525C206.197 24.9238 205.533 25.3125 205.533 26.0898C205.533 26.4297 205.646 26.6953 205.873 26.8867C206.1 27.0781 206.391 27.1738 206.746 27.1738ZM212.342 24.3496H213.865C213.947 23.5059 214.246 22.8281 214.762 22.3164C215.281 21.8008 215.936 21.543 216.725 21.543C217.553 21.543 218.23 21.8223 218.758 22.3809C219.285 22.9395 219.57 23.666 219.613 24.5605L219.619 24.9004C219.619 25.5176 219.498 26.0742 219.256 26.5703C219.014 27.0664 218.674 27.4492 218.236 27.7188C217.799 27.9844 217.299 28.1172 216.736 28.1172C215.92 28.1172 215.252 27.8516 214.732 27.3203C214.213 26.7852 213.922 26.0918 213.859 25.2402H212.342V28H211.258V21.6602H212.342V24.3496ZM214.932 24.9004C214.932 25.6035 215.094 26.168 215.418 26.5938C215.746 27.0195 216.186 27.2324 216.736 27.2324C217.287 27.2324 217.723 27.0156 218.043 26.582C218.367 26.1484 218.529 25.5449 218.529 24.7715C218.529 24.0801 218.365 23.5176 218.037 23.084C217.709 22.6504 217.271 22.4336 216.725 22.4336C216.186 22.4336 215.752 22.6465 215.424 23.0723C215.096 23.498 214.932 24.1074 214.932 24.9004ZM223.498 27.2324C223.885 27.2324 224.223 27.1152 224.512 26.8809C224.801 26.6465 224.961 26.3535 224.992 26.002H226.018C225.998 26.3652 225.873 26.7109 225.643 27.0391C225.412 27.3672 225.104 27.6289 224.717 27.8242C224.334 28.0195 223.928 28.1172 223.498 28.1172C222.635 28.1172 221.947 27.8301 221.436 27.2559C220.928 26.6777 220.674 25.8887 220.674 24.8887V24.707C220.674 24.0898 220.787 23.541 221.014 23.0605C221.24 22.5801 221.564 22.207 221.986 21.9414C222.412 21.6758 222.914 21.543 223.492 21.543C224.203 21.543 224.793 21.7559 225.262 22.1816C225.734 22.6074 225.986 23.1602 226.018 23.8398H224.992C224.961 23.4297 224.805 23.0938 224.523 22.832C224.246 22.5664 223.902 22.4336 223.492 22.4336C222.941 22.4336 222.514 22.6328 222.209 23.0312C221.908 23.4258 221.758 23.998 221.758 24.748V24.9531C221.758 25.6836 221.908 26.2461 222.209 26.6406C222.51 27.0352 222.939 27.2324 223.498 27.2324ZM228.42 23.8457H230.066C230.785 23.8535 231.354 24.041 231.771 24.4082C232.189 24.7754 232.398 25.2734 232.398 25.9023C232.398 26.5352 232.184 27.043 231.754 27.4258C231.324 27.8086 230.746 28 230.02 28H227.336V21.6602H228.42V23.8457ZM228.42 24.7305V27.1152H230.031C230.438 27.1152 230.752 27.0117 230.975 26.8047C231.197 26.5938 231.309 26.3066 231.309 25.9434C231.309 25.5918 231.199 25.3047 230.98 25.082C230.766 24.8555 230.463 24.7383 230.072 24.7305H228.42ZM239.271 27.2324C239.658 27.2324 239.996 27.1152 240.285 26.8809C240.574 26.6465 240.734 26.3535 240.766 26.002H241.791C241.771 26.3652 241.646 26.7109 241.416 27.0391C241.186 27.3672 240.877 27.6289 240.49 27.8242C240.107 28.0195 239.701 28.1172 239.271 28.1172C238.408 28.1172 237.721 27.8301 237.209 27.2559C236.701 26.6777 236.447 25.8887 236.447 24.8887V24.707C236.447 24.0898 236.561 23.541 236.787 23.0605C237.014 22.5801 237.338 22.207 237.76 21.9414C238.186 21.6758 238.688 21.543 239.266 21.543C239.977 21.543 240.566 21.7559 241.035 22.1816C241.508 22.6074 241.76 23.1602 241.791 23.8398H240.766C240.734 23.4297 240.578 23.0938 240.297 22.832C240.02 22.5664 239.676 22.4336 239.266 22.4336C238.715 22.4336 238.287 22.6328 237.982 23.0312C237.682 23.4258 237.531 23.998 237.531 24.748V24.9531C237.531 25.6836 237.682 26.2461 237.982 26.6406C238.283 27.0352 238.713 27.2324 239.271 27.2324ZM31.1641 46H25.5742V45.2207L28.5273 41.9395C28.9648 41.4434 29.2656 41.041 29.4297 40.7324C29.5977 40.4199 29.6816 40.0977 29.6816 39.7656C29.6816 39.3203 29.5469 38.9551 29.2773 38.6699C29.0078 38.3848 28.6484 38.2422 28.1992 38.2422C27.6602 38.2422 27.2402 38.3965 26.9395 38.7051C26.6426 39.0098 26.4941 39.4355 26.4941 39.9824H25.4102C25.4102 39.1973 25.6621 38.5625 26.166 38.0781C26.6738 37.5938 27.3516 37.3516 28.1992 37.3516C28.9922 37.3516 29.6191 37.5605 30.0801 37.9785C30.541 38.3926 30.7715 38.9453 30.7715 39.6367C30.7715 40.4766 30.2363 41.4766 29.166 42.6367L26.8809 45.1152H31.1641V46ZM37.6621 42.3613C37.6621 43.6309 37.4453 44.5742 37.0117 45.1914C36.5781 45.8086 35.9004 46.1172 34.9785 46.1172C34.0684 46.1172 33.3945 45.8164 32.957 45.2148C32.5195 44.6094 32.293 43.707 32.2773 42.5078V41.0605C32.2773 39.8066 32.4941 38.875 32.9277 38.2656C33.3613 37.6562 34.041 37.3516 34.9668 37.3516C35.8848 37.3516 36.5605 37.6465 36.9941 38.2363C37.4277 38.8223 37.6504 39.7285 37.6621 40.9551V42.3613ZM36.5781 40.8789C36.5781 39.9609 36.4492 39.293 36.1914 38.875C35.9336 38.4531 35.5254 38.2422 34.9668 38.2422C34.4121 38.2422 34.0078 38.4512 33.7539 38.8691C33.5 39.2871 33.3691 39.9297 33.3613 40.7969V42.5312C33.3613 43.4531 33.4941 44.1348 33.7598 44.5762C34.0293 45.0137 34.4355 45.2324 34.9785 45.2324C35.5137 45.2324 35.9102 45.0254 36.168 44.6113C36.4297 44.1973 36.5664 43.5449 36.5781 42.6543V40.8789ZM42.6133 46H41.5234V38.7754L39.3379 39.5781V38.5938L42.4434 37.4277H42.6133V46ZM51.3789 46H45.7891V45.2207L48.7422 41.9395C49.1797 41.4434 49.4805 41.041 49.6445 40.7324C49.8125 40.4199 49.8965 40.0977 49.8965 39.7656C49.8965 39.3203 49.7617 38.9551 49.4922 38.6699C49.2227 38.3848 48.8633 38.2422 48.4141 38.2422C47.875 38.2422 47.4551 38.3965 47.1543 38.7051C46.8574 39.0098 46.709 39.4355 46.709 39.9824H45.625C45.625 39.1973 45.877 38.5625 46.3809 38.0781C46.8887 37.5938 47.5664 37.3516 48.4141 37.3516C49.207 37.3516 49.834 37.5605 50.2949 37.9785C50.7559 38.3926 50.9863 38.9453 50.9863 39.6367C50.9863 40.4766 50.4512 41.4766 49.3809 42.6367L47.0957 45.1152H51.3789V46ZM59.7109 40.5566H56.7871V46H55.6973V39.6602H59.7109V40.5566ZM60.25 42.7715C60.25 42.1504 60.3711 41.5918 60.6133 41.0957C60.8594 40.5996 61.1992 40.2168 61.6328 39.9473C62.0703 39.6777 62.5684 39.543 63.127 39.543C63.9902 39.543 64.6875 39.8418 65.2188 40.4395C65.7539 41.0371 66.0215 41.832 66.0215 42.8242V42.9004C66.0215 43.5176 65.9023 44.0723 65.6641 44.5645C65.4297 45.0527 65.0918 45.4336 64.6504 45.707C64.2129 45.9805 63.709 46.1172 63.1387 46.1172C62.2793 46.1172 61.582 45.8184 61.0469 45.2207C60.5156 44.623 60.25 43.832 60.25 42.8477V42.7715ZM61.3398 42.9004C61.3398 43.6035 61.502 44.168 61.8262 44.5938C62.1543 45.0195 62.5918 45.2324 63.1387 45.2324C63.6895 45.2324 64.127 45.0176 64.4512 44.5879C64.7754 44.1543 64.9375 43.5488 64.9375 42.7715C64.9375 42.0762 64.7715 41.5137 64.4395 41.084C64.1113 40.6504 63.6738 40.4336 63.127 40.4336C62.5918 40.4336 62.1602 40.6465 61.832 41.0723C61.5039 41.498 61.3398 42.1074 61.3398 42.9004ZM66.9062 45.1152L67.2812 44.6523C67.7031 44.1055 67.9434 43.2852 68.002 42.1914L68.1016 39.6602H72.1855V45.1152H73V47.8633H71.916V46H67.4922V47.8633H66.4082L66.4141 45.1152H66.9062ZM68.1895 45.1152H71.1016V40.6621H69.1504L69.0859 42.1738C69.0195 43.4355 68.7207 44.416 68.1895 45.1152ZM78.1152 46C78.0527 45.875 78.002 45.6523 77.9629 45.332C77.459 45.8555 76.8574 46.1172 76.1582 46.1172C75.5332 46.1172 75.0195 45.9414 74.6172 45.5898C74.2188 45.2344 74.0195 44.7852 74.0195 44.2422C74.0195 43.582 74.2695 43.0703 74.7695 42.707C75.2734 42.3398 75.9805 42.1562 76.8906 42.1562H77.9453V41.6582C77.9453 41.2793 77.832 40.9785 77.6055 40.7559C77.3789 40.5293 77.0449 40.416 76.6035 40.416C76.2168 40.416 75.8926 40.5137 75.6309 40.709C75.3691 40.9043 75.2383 41.1406 75.2383 41.418H74.1484C74.1484 41.1016 74.2598 40.7969 74.4824 40.5039C74.709 40.207 75.0137 39.9727 75.3965 39.8008C75.7832 39.6289 76.207 39.543 76.668 39.543C77.3984 39.543 77.9707 39.7266 78.3848 40.0938C78.7988 40.457 79.0137 40.959 79.0293 41.5996V44.5176C79.0293 45.0996 79.1035 45.5625 79.252 45.9062V46H78.1152ZM76.3164 45.1738C76.6562 45.1738 76.9785 45.0859 77.2832 44.9102C77.5879 44.7344 77.8086 44.5059 77.9453 44.2246V42.9238H77.0957C75.7676 42.9238 75.1035 43.3125 75.1035 44.0898C75.1035 44.4297 75.2168 44.6953 75.4434 44.8867C75.6699 45.0781 75.9609 45.1738 76.3164 45.1738ZM80.752 45.4316C80.752 45.2441 80.8066 45.0879 80.916 44.9629C81.0293 44.8379 81.1973 44.7754 81.4199 44.7754C81.6426 44.7754 81.8105 44.8379 81.9238 44.9629C82.041 45.0879 82.0996 45.2441 82.0996 45.4316C82.0996 45.6113 82.041 45.7617 81.9238 45.8828C81.8105 46.0039 81.6426 46.0645 81.4199 46.0645C81.1973 46.0645 81.0293 46.0039 80.916 45.8828C80.8066 45.7617 80.752 45.6113 80.752 45.4316ZM88.1641 42.6602V46H87.0391V37.4688H90.1855C91.1191 37.4688 91.8496 37.707 92.377 38.1836C92.9082 38.6602 93.1738 39.291 93.1738 40.0762C93.1738 40.9043 92.9141 41.543 92.3945 41.9922C91.8789 42.4375 91.1387 42.6602 90.1738 42.6602H88.1641ZM88.1641 41.7402H90.1855C90.7871 41.7402 91.248 41.5996 91.5684 41.3184C91.8887 41.0332 92.0488 40.623 92.0488 40.0879C92.0488 39.5801 91.8887 39.1738 91.5684 38.8691C91.248 38.5645 90.8086 38.4062 90.25 38.3945H88.1641V41.7402ZM98.2832 46C98.2207 45.875 98.1699 45.6523 98.1309 45.332C97.627 45.8555 97.0254 46.1172 96.3262 46.1172C95.7012 46.1172 95.1875 45.9414 94.7852 45.5898C94.3867 45.2344 94.1875 44.7852 94.1875 44.2422C94.1875 43.582 94.4375 43.0703 94.9375 42.707C95.4414 42.3398 96.1484 42.1562 97.0586 42.1562H98.1133V41.6582C98.1133 41.2793 98 40.9785 97.7734 40.7559C97.5469 40.5293 97.2129 40.416 96.7715 40.416C96.3848 40.416 96.0605 40.5137 95.7988 40.709C95.5371 40.9043 95.4062 41.1406 95.4062 41.418H94.3164C94.3164 41.1016 94.4277 40.7969 94.6504 40.5039C94.877 40.207 95.1816 39.9727 95.5645 39.8008C95.9512 39.6289 96.375 39.543 96.8359 39.543C97.5664 39.543 98.1387 39.7266 98.5527 40.0938C98.9668 40.457 99.1816 40.959 99.1973 41.5996V44.5176C99.1973 45.0996 99.2715 45.5625 99.4199 45.9062V46H98.2832ZM96.4844 45.1738C96.8242 45.1738 97.1465 45.0859 97.4512 44.9102C97.7559 44.7344 97.9766 44.5059 98.1133 44.2246V42.9238H97.2637C95.9355 42.9238 95.2715 43.3125 95.2715 44.0898C95.2715 44.4297 95.3848 44.6953 95.6113 44.8867C95.8379 45.0781 96.1289 45.1738 96.4844 45.1738ZM103.68 40.0234C104.477 40.0234 105.113 40.291 105.59 40.8262C106.07 41.3574 106.311 42.0586 106.311 42.9297V43.0293C106.311 43.627 106.195 44.1621 105.965 44.6348C105.734 45.1035 105.402 45.4688 104.969 45.7305C104.539 45.9883 104.043 46.1172 103.48 46.1172C102.629 46.1172 101.943 45.834 101.424 45.2676C100.904 44.6973 100.645 43.9336 100.645 42.9766V42.4492C100.645 41.1172 100.891 40.0586 101.383 39.2734C101.879 38.4883 102.609 38.0098 103.574 37.8379C104.121 37.7402 104.49 37.6211 104.682 37.4805C104.873 37.3398 104.969 37.1465 104.969 36.9004H105.859C105.859 37.3887 105.748 37.7695 105.525 38.043C105.307 38.3164 104.955 38.5098 104.471 38.623L103.662 38.8047C103.018 38.957 102.533 39.2148 102.209 39.5781C101.889 39.9375 101.68 40.418 101.582 41.0195C102.156 40.3555 102.855 40.0234 103.68 40.0234ZM103.469 40.9141C102.938 40.9141 102.516 41.0938 102.203 41.4531C101.891 41.8086 101.734 42.3027 101.734 42.9355V43.0293C101.734 43.709 101.891 44.248 102.203 44.6465C102.52 45.041 102.945 45.2383 103.48 45.2383C104.02 45.2383 104.445 45.0391 104.758 44.6406C105.07 44.2422 105.227 43.6602 105.227 42.8945C105.227 42.2969 105.068 41.8184 104.752 41.459C104.439 41.0957 104.012 40.9141 103.469 40.9141ZM107.242 42.7715C107.242 42.1504 107.363 41.5918 107.605 41.0957C107.852 40.5996 108.191 40.2168 108.625 39.9473C109.062 39.6777 109.561 39.543 110.119 39.543C110.982 39.543 111.68 39.8418 112.211 40.4395C112.746 41.0371 113.014 41.832 113.014 42.8242V42.9004C113.014 43.5176 112.895 44.0723 112.656 44.5645C112.422 45.0527 112.084 45.4336 111.643 45.707C111.205 45.9805 110.701 46.1172 110.131 46.1172C109.271 46.1172 108.574 45.8184 108.039 45.2207C107.508 44.623 107.242 43.832 107.242 42.8477V42.7715ZM108.332 42.9004C108.332 43.6035 108.494 44.168 108.818 44.5938C109.146 45.0195 109.584 45.2324 110.131 45.2324C110.682 45.2324 111.119 45.0176 111.443 44.5879C111.768 44.1543 111.93 43.5488 111.93 42.7715C111.93 42.0762 111.764 41.5137 111.432 41.084C111.104 40.6504 110.666 40.4336 110.119 40.4336C109.584 40.4336 109.152 40.6465 108.824 41.0723C108.496 41.498 108.332 42.1074 108.332 42.9004ZM118.955 40.5391H116.828V46H115.744V40.5391H113.658V39.6602H118.955V40.5391ZM123.83 46C123.768 45.875 123.717 45.6523 123.678 45.332C123.174 45.8555 122.572 46.1172 121.873 46.1172C121.248 46.1172 120.734 45.9414 120.332 45.5898C119.934 45.2344 119.734 44.7852 119.734 44.2422C119.734 43.582 119.984 43.0703 120.484 42.707C120.988 42.3398 121.695 42.1562 122.605 42.1562H123.66V41.6582C123.66 41.2793 123.547 40.9785 123.32 40.7559C123.094 40.5293 122.76 40.416 122.318 40.416C121.932 40.416 121.607 40.5137 121.346 40.709C121.084 40.9043 120.953 41.1406 120.953 41.418H119.863C119.863 41.1016 119.975 40.7969 120.197 40.5039C120.424 40.207 120.729 39.9727 121.111 39.8008C121.498 39.6289 121.922 39.543 122.383 39.543C123.113 39.543 123.686 39.7266 124.1 40.0938C124.514 40.457 124.729 40.959 124.744 41.5996V44.5176C124.744 45.0996 124.818 45.5625 124.967 45.9062V46H123.83ZM122.031 45.1738C122.371 45.1738 122.693 45.0859 122.998 44.9102C123.303 44.7344 123.523 44.5059 123.66 44.2246V42.9238H122.811C121.482 42.9238 120.818 43.3125 120.818 44.0898C120.818 44.4297 120.932 44.6953 121.158 44.8867C121.385 45.0781 121.676 45.1738 122.031 45.1738ZM131.641 39.6602V46H130.551V40.5566H128.395L128.266 42.9297C128.195 44.0195 128.012 44.7988 127.715 45.2676C127.422 45.7363 126.955 45.9805 126.314 46H125.881V45.0449L126.191 45.0215C126.543 44.9824 126.795 44.7793 126.947 44.4121C127.1 44.0449 127.197 43.3652 127.24 42.373L127.357 39.6602H131.641ZM136.457 46V39.6602H138.93C139.773 39.6602 140.42 39.8086 140.869 40.1055C141.322 40.3984 141.549 40.8301 141.549 41.4004C141.549 41.6934 141.461 41.959 141.285 42.1973C141.109 42.4316 140.85 42.6113 140.506 42.7363C140.889 42.8262 141.195 43.002 141.426 43.2637C141.66 43.5254 141.777 43.8379 141.777 44.2012C141.777 44.7832 141.562 45.2285 141.133 45.5371C140.707 45.8457 140.104 46 139.322 46H136.457ZM137.541 43.2168V45.127H139.334C139.787 45.127 140.125 45.043 140.348 44.875C140.574 44.707 140.688 44.4707 140.688 44.166C140.688 43.5332 140.223 43.2168 139.293 43.2168H137.541ZM137.541 42.3496H138.941C139.957 42.3496 140.465 42.0527 140.465 41.459C140.465 40.8652 139.984 40.5586 139.023 40.5391H137.541V42.3496ZM151.369 46H150.285V43.293H147.373V46H146.283V39.6602H147.373V42.4082H150.285V39.6602H151.369V46ZM155.746 46.1172C154.887 46.1172 154.188 45.8359 153.648 45.2734C153.109 44.707 152.84 43.9512 152.84 43.0059V42.8066C152.84 42.1777 152.959 41.6172 153.197 41.125C153.439 40.6289 153.775 40.2422 154.205 39.9648C154.639 39.6836 155.107 39.543 155.611 39.543C156.436 39.543 157.076 39.8145 157.533 40.3574C157.99 40.9004 158.219 41.6777 158.219 42.6895V43.1406H153.924C153.939 43.7656 154.121 44.2715 154.469 44.6582C154.82 45.041 155.266 45.2324 155.805 45.2324C156.188 45.2324 156.512 45.1543 156.777 44.998C157.043 44.8418 157.275 44.6348 157.475 44.377L158.137 44.8926C157.605 45.709 156.809 46.1172 155.746 46.1172ZM155.611 40.4336C155.174 40.4336 154.807 40.5938 154.51 40.9141C154.213 41.2305 154.029 41.6758 153.959 42.25H157.135V42.168C157.104 41.6172 156.955 41.1914 156.689 40.8906C156.424 40.5859 156.064 40.4336 155.611 40.4336ZM162.021 45.2324C162.408 45.2324 162.746 45.1152 163.035 44.8809C163.324 44.6465 163.484 44.3535 163.516 44.002H164.541C164.521 44.3652 164.396 44.7109 164.166 45.0391C163.936 45.3672 163.627 45.6289 163.24 45.8242C162.857 46.0195 162.451 46.1172 162.021 46.1172C161.158 46.1172 160.471 45.8301 159.959 45.2559C159.451 44.6777 159.197 43.8887 159.197 42.8887V42.707C159.197 42.0898 159.311 41.541 159.537 41.0605C159.764 40.5801 160.088 40.207 160.51 39.9414C160.936 39.6758 161.438 39.543 162.016 39.543C162.727 39.543 163.316 39.7559 163.785 40.1816C164.258 40.6074 164.51 41.1602 164.541 41.8398H163.516C163.484 41.4297 163.328 41.0938 163.047 40.832C162.77 40.5664 162.426 40.4336 162.016 40.4336C161.465 40.4336 161.037 40.6328 160.732 41.0312C160.432 41.4258 160.281 41.998 160.281 42.748V42.9531C160.281 43.6836 160.432 44.2461 160.732 44.6406C161.033 45.0352 161.463 45.2324 162.021 45.2324ZM167.734 43.2988H166.943V46H165.854V39.6602H166.943V42.3438H167.652L169.785 39.6602H171.098L168.59 42.707L171.309 46H169.932L167.734 43.2988ZM171.824 42.7715C171.824 42.1504 171.945 41.5918 172.188 41.0957C172.434 40.5996 172.773 40.2168 173.207 39.9473C173.645 39.6777 174.143 39.543 174.701 39.543C175.564 39.543 176.262 39.8418 176.793 40.4395C177.328 41.0371 177.596 41.832 177.596 42.8242V42.9004C177.596 43.5176 177.477 44.0723 177.238 44.5645C177.004 45.0527 176.666 45.4336 176.225 45.707C175.787 45.9805 175.283 46.1172 174.713 46.1172C173.854 46.1172 173.156 45.8184 172.621 45.2207C172.09 44.623 171.824 43.832 171.824 42.8477V42.7715ZM172.914 42.9004C172.914 43.6035 173.076 44.168 173.4 44.5938C173.729 45.0195 174.166 45.2324 174.713 45.2324C175.264 45.2324 175.701 45.0176 176.025 44.5879C176.35 44.1543 176.512 43.5488 176.512 42.7715C176.512 42.0762 176.346 41.5137 176.014 41.084C175.686 40.6504 175.248 40.4336 174.701 40.4336C174.166 40.4336 173.734 40.6465 173.406 41.0723C173.078 41.498 172.914 42.1074 172.914 42.9004ZM184.059 39.6602V46H182.969V40.5566H180.812L180.684 42.9297C180.613 44.0195 180.43 44.7988 180.133 45.2676C179.84 45.7363 179.373 45.9805 178.732 46H178.299V45.0449L178.609 45.0215C178.961 44.9824 179.213 44.7793 179.365 44.4121C179.518 44.0449 179.615 43.3652 179.658 42.373L179.775 39.6602H184.059ZM186.982 41.8457H188.629C189.348 41.8535 189.916 42.041 190.334 42.4082C190.752 42.7754 190.961 43.2734 190.961 43.9023C190.961 44.5352 190.746 45.043 190.316 45.4258C189.887 45.8086 189.309 46 188.582 46H185.898V39.6602H186.982V41.8457ZM186.982 42.7305V45.1152H188.594C189 45.1152 189.314 45.0117 189.537 44.8047C189.76 44.5938 189.871 44.3066 189.871 43.9434C189.871 43.5918 189.762 43.3047 189.543 43.082C189.328 42.8555 189.025 42.7383 188.635 42.7305H186.982ZM194.289 43.2988H193.498V46H192.408V39.6602H193.498V42.3438H194.207L196.34 39.6602H197.652L195.145 42.707L197.863 46H196.486L194.289 43.2988ZM202.896 39.6602H203.98V46H202.896V41.377L199.973 46H198.889V39.6602H199.973V44.2891L202.896 39.6602ZM207.848 41.9746L209.254 39.6602H210.52L208.445 42.7949L210.584 46H209.33L207.865 43.627L206.4 46H205.141L207.279 42.7949L205.205 39.6602H206.459L207.848 41.9746ZM220.199 37.4688H221.324V46H220.199V39.4258L215.998 46H214.867V37.4688H215.998V44.043L220.199 37.4688ZM229.094 38.3945H226.352V46H225.232V38.3945H222.496V37.4688H229.094V38.3945ZM2.02539 61.2988H1.23438V64H0.144531V57.6602H1.23438V60.3438H1.94336L4.07617 57.6602H5.38867L2.88086 60.707L5.59961 64H4.22266L2.02539 61.2988ZM6.11523 60.7715C6.11523 60.1504 6.23633 59.5918 6.47852 59.0957C6.72461 58.5996 7.06445 58.2168 7.49805 57.9473C7.93555 57.6777 8.43359 57.543 8.99219 57.543C9.85547 57.543 10.5527 57.8418 11.084 58.4395C11.6191 59.0371 11.8867 59.832 11.8867 60.8242V60.9004C11.8867 61.5176 11.7676 62.0723 11.5293 62.5645C11.2949 63.0527 10.957 63.4336 10.5156 63.707C10.0781 63.9805 9.57422 64.1172 9.00391 64.1172C8.14453 64.1172 7.44727 63.8184 6.91211 63.2207C6.38086 62.623 6.11523 61.832 6.11523 60.8477V60.7715ZM7.20508 60.9004C7.20508 61.6035 7.36719 62.168 7.69141 62.5938C8.01953 63.0195 8.45703 63.2324 9.00391 63.2324C9.55469 63.2324 9.99219 63.0176 10.3164 62.5879C10.6406 62.1543 10.8027 61.5488 10.8027 60.7715C10.8027 60.0762 10.6367 59.5137 10.3047 59.084C9.97656 58.6504 9.53906 58.4336 8.99219 58.4336C8.45703 58.4336 8.02539 58.6465 7.69727 59.0723C7.36914 59.498 7.20508 60.1074 7.20508 60.9004ZM16.8965 62.5645L19.0527 57.6602H20.4062V64H19.3223V59.3887L17.2715 64H16.5215L14.4297 59.2891V64H13.3457V57.6602H14.752L16.8965 62.5645ZM27.3379 64H26.2539V58.5566H23.3359V64H22.2461V57.6602H27.3379V64ZM32.9922 64C32.9297 63.875 32.8789 63.6523 32.8398 63.332C32.3359 63.8555 31.7344 64.1172 31.0352 64.1172C30.4102 64.1172 29.8965 63.9414 29.4941 63.5898C29.0957 63.2344 28.8965 62.7852 28.8965 62.2422C28.8965 61.582 29.1465 61.0703 29.6465 60.707C30.1504 60.3398 30.8574 60.1562 31.7676 60.1562H32.8223V59.6582C32.8223 59.2793 32.709 58.9785 32.4824 58.7559C32.2559 58.5293 31.9219 58.416 31.4805 58.416C31.0938 58.416 30.7695 58.5137 30.5078 58.709C30.2461 58.9043 30.1152 59.1406 30.1152 59.418H29.0254C29.0254 59.1016 29.1367 58.7969 29.3594 58.5039C29.5859 58.207 29.8906 57.9727 30.2734 57.8008C30.6602 57.6289 31.084 57.543 31.5449 57.543C32.2754 57.543 32.8477 57.7266 33.2617 58.0938C33.6758 58.457 33.8906 58.959 33.9062 59.5996V62.5176C33.9062 63.0996 33.9805 63.5625 34.1289 63.9062V64H32.9922ZM31.1934 63.1738C31.5332 63.1738 31.8555 63.0859 32.1602 62.9102C32.4648 62.7344 32.6855 62.5059 32.8223 62.2246V60.9238H31.9727C30.6445 60.9238 29.9805 61.3125 29.9805 62.0898C29.9805 62.4297 30.0938 62.6953 30.3203 62.8867C30.5469 63.0781 30.8379 63.1738 31.1934 63.1738ZM40.7852 64H39.7012V61.293H36.7891V64H35.6992V57.6602H36.7891V60.4082H39.7012V57.6602H40.7852V64ZM46.6328 57.6602H47.7168V64H46.6328V59.377L43.709 64H42.625V57.6602H43.709V62.2891L46.6328 57.6602ZM54.3027 57.6602V64H53.2129V61.5332H51.5781L50.084 64H48.9121L50.5059 61.3691C50.0996 61.2207 49.7871 60.9922 49.5684 60.6836C49.3535 60.3711 49.2461 60.0078 49.2461 59.5938C49.2461 59.0156 49.4629 58.5508 49.8965 58.1992C50.3301 57.8438 50.9102 57.6641 51.6367 57.6602H54.3027ZM50.3359 59.6055C50.3359 59.9141 50.4414 60.1641 50.6523 60.3555C50.8633 60.543 51.1426 60.6387 51.4902 60.6426H53.2129V58.5391H51.6543C51.252 58.5391 50.9316 58.6387 50.6934 58.8379C50.4551 59.0332 50.3359 59.2891 50.3359 59.6055ZM58.1699 59.9746L59.5762 57.6602H60.8418L58.7676 60.7949L60.9062 64H59.6523L58.1875 61.627L56.7227 64H55.4629L57.6016 60.7949L55.5273 57.6602H56.7812L58.1699 59.9746ZM69.0742 57.6602H70.1582V64H69.0742V59.377L66.1504 64H65.0664V57.6602H66.1504V62.2891L69.0742 57.6602ZM80.0547 64H78.9707V61.293H76.0586V64H74.9688V57.6602H76.0586V60.4082H78.9707V57.6602H80.0547V64ZM85.7148 64C85.6523 63.875 85.6016 63.6523 85.5625 63.332C85.0586 63.8555 84.457 64.1172 83.7578 64.1172C83.1328 64.1172 82.6191 63.9414 82.2168 63.5898C81.8184 63.2344 81.6191 62.7852 81.6191 62.2422C81.6191 61.582 81.8691 61.0703 82.3691 60.707C82.873 60.3398 83.5801 60.1562 84.4902 60.1562H85.5449V59.6582C85.5449 59.2793 85.4316 58.9785 85.2051 58.7559C84.9785 58.5293 84.6445 58.416 84.2031 58.416C83.8164 58.416 83.4922 58.5137 83.2305 58.709C82.9688 58.9043 82.8379 59.1406 82.8379 59.418H81.748C81.748 59.1016 81.8594 58.7969 82.082 58.5039C82.3086 58.207 82.6133 57.9727 82.9961 57.8008C83.3828 57.6289 83.8066 57.543 84.2676 57.543C84.998 57.543 85.5703 57.7266 85.9844 58.0938C86.3984 58.457 86.6133 58.959 86.6289 59.5996V62.5176C86.6289 63.0996 86.7031 63.5625 86.8516 63.9062V64H85.7148ZM83.916 63.1738C84.2559 63.1738 84.5781 63.0859 84.8828 62.9102C85.1875 62.7344 85.4082 62.5059 85.5449 62.2246V60.9238H84.6953C83.3672 60.9238 82.7031 61.3125 82.7031 62.0898C82.7031 62.4297 82.8164 62.6953 83.043 62.8867C83.2695 63.0781 83.5605 63.1738 83.916 63.1738ZM93.6836 60.9004C93.6836 61.8652 93.4629 62.6426 93.0215 63.2324C92.5801 63.8223 91.9824 64.1172 91.2285 64.1172C90.459 64.1172 89.8535 63.873 89.4121 63.3848V66.4375H88.3281V57.6602H89.3184L89.3711 58.3633C89.8125 57.8164 90.4258 57.543 91.2109 57.543C91.9727 57.543 92.5742 57.8301 93.0156 58.4043C93.4609 58.9785 93.6836 59.7773 93.6836 60.8008V60.9004ZM92.5996 60.7773C92.5996 60.0625 92.4473 59.498 92.1426 59.084C91.8379 58.6699 91.4199 58.4629 90.8887 58.4629C90.2324 58.4629 89.7402 58.7539 89.4121 59.3359V62.3652C89.7363 62.9434 90.2324 63.2324 90.9004 63.2324C91.4199 63.2324 91.832 63.0273 92.1367 62.6172C92.4453 62.2031 92.5996 61.5898 92.5996 60.7773ZM98.9805 64C98.918 63.875 98.8672 63.6523 98.8281 63.332C98.3242 63.8555 97.7227 64.1172 97.0234 64.1172C96.3984 64.1172 95.8848 63.9414 95.4824 63.5898C95.084 63.2344 94.8848 62.7852 94.8848 62.2422C94.8848 61.582 95.1348 61.0703 95.6348 60.707C96.1387 60.3398 96.8457 60.1562 97.7559 60.1562H98.8105V59.6582C98.8105 59.2793 98.6973 58.9785 98.4707 58.7559C98.2441 58.5293 97.9102 58.416 97.4688 58.416C97.082 58.416 96.7578 58.5137 96.4961 58.709C96.2344 58.9043 96.1035 59.1406 96.1035 59.418H95.0137C95.0137 59.1016 95.125 58.7969 95.3477 58.5039C95.5742 58.207 95.8789 57.9727 96.2617 57.8008C96.6484 57.6289 97.0723 57.543 97.5332 57.543C98.2637 57.543 98.8359 57.7266 99.25 58.0938C99.6641 58.457 99.8789 58.959 99.8945 59.5996V62.5176C99.8945 63.0996 99.9688 63.5625 100.117 63.9062V64H98.9805ZM97.1816 63.1738C97.5215 63.1738 97.8438 63.0859 98.1484 62.9102C98.4531 62.7344 98.6738 62.5059 98.8105 62.2246V60.9238H97.9609C96.6328 60.9238 95.9688 61.3125 95.9688 62.0898C95.9688 62.4297 96.082 62.6953 96.3086 62.8867C96.5352 63.0781 96.8262 63.1738 97.1816 63.1738ZM104.377 58.0234C105.174 58.0234 105.811 58.291 106.287 58.8262C106.768 59.3574 107.008 60.0586 107.008 60.9297V61.0293C107.008 61.627 106.893 62.1621 106.662 62.6348C106.432 63.1035 106.1 63.4688 105.666 63.7305C105.236 63.9883 104.74 64.1172 104.178 64.1172C103.326 64.1172 102.641 63.834 102.121 63.2676C101.602 62.6973 101.342 61.9336 101.342 60.9766V60.4492C101.342 59.1172 101.588 58.0586 102.08 57.2734C102.576 56.4883 103.307 56.0098 104.271 55.8379C104.818 55.7402 105.188 55.6211 105.379 55.4805C105.57 55.3398 105.666 55.1465 105.666 54.9004H106.557C106.557 55.3887 106.445 55.7695 106.223 56.043C106.004 56.3164 105.652 56.5098 105.168 56.623L104.359 56.8047C103.715 56.957 103.23 57.2148 102.906 57.5781C102.586 57.9375 102.377 58.418 102.279 59.0195C102.854 58.3555 103.553 58.0234 104.377 58.0234ZM104.166 58.9141C103.635 58.9141 103.213 59.0938 102.9 59.4531C102.588 59.8086 102.432 60.3027 102.432 60.9355V61.0293C102.432 61.709 102.588 62.248 102.9 62.6465C103.217 63.041 103.643 63.2383 104.178 63.2383C104.717 63.2383 105.143 63.0391 105.455 62.6406C105.768 62.2422 105.924 61.6602 105.924 60.8945C105.924 60.2969 105.766 59.8184 105.449 59.459C105.137 59.0957 104.709 58.9141 104.166 58.9141ZM107.939 60.7715C107.939 60.1504 108.061 59.5918 108.303 59.0957C108.549 58.5996 108.889 58.2168 109.322 57.9473C109.76 57.6777 110.258 57.543 110.816 57.543C111.68 57.543 112.377 57.8418 112.908 58.4395C113.443 59.0371 113.711 59.832 113.711 60.8242V60.9004C113.711 61.5176 113.592 62.0723 113.354 62.5645C113.119 63.0527 112.781 63.4336 112.34 63.707C111.902 63.9805 111.398 64.1172 110.828 64.1172C109.969 64.1172 109.271 63.8184 108.736 63.2207C108.205 62.623 107.939 61.832 107.939 60.8477V60.7715ZM109.029 60.9004C109.029 61.6035 109.191 62.168 109.516 62.5938C109.844 63.0195 110.281 63.2324 110.828 63.2324C111.379 63.2324 111.816 63.0176 112.141 62.5879C112.465 62.1543 112.627 61.5488 112.627 60.7715C112.627 60.0762 112.461 59.5137 112.129 59.084C111.801 58.6504 111.363 58.4336 110.816 58.4336C110.281 58.4336 109.85 58.6465 109.521 59.0723C109.193 59.498 109.029 60.1074 109.029 60.9004ZM119.652 58.5391H117.525V64H116.441V58.5391H114.355V57.6602H119.652V58.5391ZM124.527 64C124.465 63.875 124.414 63.6523 124.375 63.332C123.871 63.8555 123.27 64.1172 122.57 64.1172C121.945 64.1172 121.432 63.9414 121.029 63.5898C120.631 63.2344 120.432 62.7852 120.432 62.2422C120.432 61.582 120.682 61.0703 121.182 60.707C121.686 60.3398 122.393 60.1562 123.303 60.1562H124.357V59.6582C124.357 59.2793 124.244 58.9785 124.018 58.7559C123.791 58.5293 123.457 58.416 123.016 58.416C122.629 58.416 122.305 58.5137 122.043 58.709C121.781 58.9043 121.65 59.1406 121.65 59.418H120.561C120.561 59.1016 120.672 58.7969 120.895 58.5039C121.121 58.207 121.426 57.9727 121.809 57.8008C122.195 57.6289 122.619 57.543 123.08 57.543C123.811 57.543 124.383 57.7266 124.797 58.0938C125.211 58.457 125.426 58.959 125.441 59.5996V62.5176C125.441 63.0996 125.516 63.5625 125.664 63.9062V64H124.527ZM122.729 63.1738C123.068 63.1738 123.391 63.0859 123.695 62.9102C124 62.7344 124.221 62.5059 124.357 62.2246V60.9238H123.508C122.18 60.9238 121.516 61.3125 121.516 62.0898C121.516 62.4297 121.629 62.6953 121.855 62.8867C122.082 63.0781 122.373 63.1738 122.729 63.1738ZM132.338 57.6602V64H131.248V58.5566H129.092L128.963 60.9297C128.893 62.0195 128.709 62.7988 128.412 63.2676C128.119 63.7363 127.652 63.9805 127.012 64H126.578V63.0449L126.889 63.0215C127.24 62.9824 127.492 62.7793 127.645 62.4121C127.797 62.0449 127.895 61.3652 127.938 60.373L128.055 57.6602H132.338ZM139.838 58.0234C140.635 58.0234 141.271 58.291 141.748 58.8262C142.229 59.3574 142.469 60.0586 142.469 60.9297V61.0293C142.469 61.627 142.354 62.1621 142.123 62.6348C141.893 63.1035 141.561 63.4688 141.127 63.7305C140.697 63.9883 140.201 64.1172 139.639 64.1172C138.787 64.1172 138.102 63.834 137.582 63.2676C137.062 62.6973 136.803 61.9336 136.803 60.9766V60.4492C136.803 59.1172 137.049 58.0586 137.541 57.2734C138.037 56.4883 138.768 56.0098 139.732 55.8379C140.279 55.7402 140.648 55.6211 140.84 55.4805C141.031 55.3398 141.127 55.1465 141.127 54.9004H142.018C142.018 55.3887 141.906 55.7695 141.684 56.043C141.465 56.3164 141.113 56.5098 140.629 56.623L139.82 56.8047C139.176 56.957 138.691 57.2148 138.367 57.5781C138.047 57.9375 137.838 58.418 137.74 59.0195C138.314 58.3555 139.014 58.0234 139.838 58.0234ZM139.627 58.9141C139.096 58.9141 138.674 59.0938 138.361 59.4531C138.049 59.8086 137.893 60.3027 137.893 60.9355V61.0293C137.893 61.709 138.049 62.248 138.361 62.6465C138.678 63.041 139.104 63.2383 139.639 63.2383C140.178 63.2383 140.604 63.0391 140.916 62.6406C141.229 62.2422 141.385 61.6602 141.385 60.8945C141.385 60.2969 141.227 59.8184 140.91 59.459C140.598 59.0957 140.17 58.9141 139.627 58.9141ZM143.4 60.7715C143.4 60.1504 143.521 59.5918 143.764 59.0957C144.01 58.5996 144.35 58.2168 144.783 57.9473C145.221 57.6777 145.719 57.543 146.277 57.543C147.141 57.543 147.838 57.8418 148.369 58.4395C148.904 59.0371 149.172 59.832 149.172 60.8242V60.9004C149.172 61.5176 149.053 62.0723 148.814 62.5645C148.58 63.0527 148.242 63.4336 147.801 63.707C147.363 63.9805 146.859 64.1172 146.289 64.1172C145.43 64.1172 144.732 63.8184 144.197 63.2207C143.666 62.623 143.4 61.832 143.4 60.8477V60.7715ZM144.49 60.9004C144.49 61.6035 144.652 62.168 144.977 62.5938C145.305 63.0195 145.742 63.2324 146.289 63.2324C146.84 63.2324 147.277 63.0176 147.602 62.5879C147.926 62.1543 148.088 61.5488 148.088 60.7715C148.088 60.0762 147.922 59.5137 147.59 59.084C147.262 58.6504 146.824 58.4336 146.277 58.4336C145.742 58.4336 145.311 58.6465 144.982 59.0723C144.654 59.498 144.49 60.1074 144.49 60.9004ZM155.635 57.6602V64H154.545V58.5566H152.389L152.26 60.9297C152.189 62.0195 152.006 62.7988 151.709 63.2676C151.416 63.7363 150.949 63.9805 150.309 64H149.875V63.0449L150.186 63.0215C150.537 62.9824 150.789 62.7793 150.941 62.4121C151.094 62.0449 151.191 61.3652 151.234 60.373L151.352 57.6602H155.635ZM160.006 64.1172C159.146 64.1172 158.447 63.8359 157.908 63.2734C157.369 62.707 157.1 61.9512 157.1 61.0059V60.8066C157.1 60.1777 157.219 59.6172 157.457 59.125C157.699 58.6289 158.035 58.2422 158.465 57.9648C158.898 57.6836 159.367 57.543 159.871 57.543C160.695 57.543 161.336 57.8145 161.793 58.3574C162.25 58.9004 162.479 59.6777 162.479 60.6895V61.1406H158.184C158.199 61.7656 158.381 62.2715 158.729 62.6582C159.08 63.041 159.525 63.2324 160.064 63.2324C160.447 63.2324 160.771 63.1543 161.037 62.998C161.303 62.8418 161.535 62.6348 161.734 62.377L162.396 62.8926C161.865 63.709 161.068 64.1172 160.006 64.1172ZM159.871 58.4336C159.434 58.4336 159.066 58.5938 158.77 58.9141C158.473 59.2305 158.289 59.6758 158.219 60.25H161.395V60.168C161.363 59.6172 161.215 59.1914 160.949 58.8906C160.684 58.5859 160.324 58.4336 159.871 58.4336ZM166.369 64.1172C165.51 64.1172 164.811 63.8359 164.271 63.2734C163.732 62.707 163.463 61.9512 163.463 61.0059V60.8066C163.463 60.1777 163.582 59.6172 163.82 59.125C164.062 58.6289 164.398 58.2422 164.828 57.9648C165.262 57.6836 165.73 57.543 166.234 57.543C167.059 57.543 167.699 57.8145 168.156 58.3574C168.613 58.9004 168.842 59.6777 168.842 60.6895V61.1406H164.547C164.562 61.7656 164.744 62.2715 165.092 62.6582C165.443 63.041 165.889 63.2324 166.428 63.2324C166.811 63.2324 167.135 63.1543 167.4 62.998C167.666 62.8418 167.898 62.6348 168.098 62.377L168.76 62.8926C168.229 63.709 167.432 64.1172 166.369 64.1172ZM166.234 58.4336C165.797 58.4336 165.43 58.5938 165.133 58.9141C164.836 59.2305 164.652 59.6758 164.582 60.25H167.758V60.168C167.727 59.6172 167.578 59.1914 167.312 58.8906C167.047 58.5859 166.688 58.4336 166.234 58.4336ZM176.529 64H175.439V56.7754L173.254 57.5781V56.5938L176.359 55.4277H176.529V64ZM185.055 60.3613C185.055 61.6309 184.838 62.5742 184.404 63.1914C183.971 63.8086 183.293 64.1172 182.371 64.1172C181.461 64.1172 180.787 63.8164 180.35 63.2148C179.912 62.6094 179.686 61.707 179.67 60.5078V59.0605C179.67 57.8066 179.887 56.875 180.32 56.2656C180.754 55.6562 181.434 55.3516 182.359 55.3516C183.277 55.3516 183.953 55.6465 184.387 56.2363C184.82 56.8223 185.043 57.7285 185.055 58.9551V60.3613ZM183.971 58.8789C183.971 57.9609 183.842 57.293 183.584 56.875C183.326 56.4531 182.918 56.2422 182.359 56.2422C181.805 56.2422 181.4 56.4512 181.146 56.8691C180.893 57.2871 180.762 57.9297 180.754 58.7969V60.5312C180.754 61.4531 180.887 62.1348 181.152 62.5762C181.422 63.0137 181.828 63.2324 182.371 63.2324C182.906 63.2324 183.303 63.0254 183.561 62.6113C183.822 62.1973 183.959 61.5449 183.971 60.6543V58.8789ZM194.77 60.3613C194.77 61.6309 194.553 62.5742 194.119 63.1914C193.686 63.8086 193.008 64.1172 192.086 64.1172C191.176 64.1172 190.502 63.8164 190.064 63.2148C189.627 62.6094 189.4 61.707 189.385 60.5078V59.0605C189.385 57.8066 189.602 56.875 190.035 56.2656C190.469 55.6562 191.148 55.3516 192.074 55.3516C192.992 55.3516 193.668 55.6465 194.102 56.2363C194.535 56.8223 194.758 57.7285 194.77 58.9551V60.3613ZM193.686 58.8789C193.686 57.9609 193.557 57.293 193.299 56.875C193.041 56.4531 192.633 56.2422 192.074 56.2422C191.52 56.2422 191.115 56.4512 190.861 56.8691C190.607 57.2871 190.477 57.9297 190.469 58.7969V60.5312C190.469 61.4531 190.602 62.1348 190.867 62.5762C191.137 63.0137 191.543 63.2324 192.086 63.2324C192.621 63.2324 193.018 63.0254 193.275 62.6113C193.537 62.1973 193.674 61.5449 193.686 60.6543V58.8789ZM201.508 60.3613C201.508 61.6309 201.291 62.5742 200.857 63.1914C200.424 63.8086 199.746 64.1172 198.824 64.1172C197.914 64.1172 197.24 63.8164 196.803 63.2148C196.365 62.6094 196.139 61.707 196.123 60.5078V59.0605C196.123 57.8066 196.34 56.875 196.773 56.2656C197.207 55.6562 197.887 55.3516 198.812 55.3516C199.73 55.3516 200.406 55.6465 200.84 56.2363C201.273 56.8223 201.496 57.7285 201.508 58.9551V60.3613ZM200.424 58.8789C200.424 57.9609 200.295 57.293 200.037 56.875C199.779 56.4531 199.371 56.2422 198.812 56.2422C198.258 56.2422 197.854 56.4512 197.6 56.8691C197.346 57.2871 197.215 57.9297 197.207 58.7969V60.5312C197.207 61.4531 197.34 62.1348 197.605 62.5762C197.875 63.0137 198.281 63.2324 198.824 63.2324C199.359 63.2324 199.756 63.0254 200.014 62.6113C200.275 62.1973 200.412 61.5449 200.424 60.6543V58.8789ZM208.246 60.3613C208.246 61.6309 208.029 62.5742 207.596 63.1914C207.162 63.8086 206.484 64.1172 205.562 64.1172C204.652 64.1172 203.979 63.8164 203.541 63.2148C203.104 62.6094 202.877 61.707 202.861 60.5078V59.0605C202.861 57.8066 203.078 56.875 203.512 56.2656C203.945 55.6562 204.625 55.3516 205.551 55.3516C206.469 55.3516 207.145 55.6465 207.578 56.2363C208.012 56.8223 208.234 57.7285 208.246 58.9551V60.3613ZM207.162 58.8789C207.162 57.9609 207.033 57.293 206.775 56.875C206.518 56.4531 206.109 56.2422 205.551 56.2422C204.996 56.2422 204.592 56.4512 204.338 56.8691C204.084 57.2871 203.953 57.9297 203.945 58.7969V60.5312C203.945 61.4531 204.078 62.1348 204.344 62.5762C204.613 63.0137 205.02 63.2324 205.562 63.2324C206.098 63.2324 206.494 63.0254 206.752 62.6113C207.014 62.1973 207.15 61.5449 207.162 60.6543V58.8789ZM217.51 64H216.42V61.7031C215.943 61.8281 215.455 61.8906 214.955 61.8906C214.162 61.8906 213.557 61.6875 213.139 61.2812C212.725 60.875 212.514 60.2969 212.506 59.5469V57.6543H213.59V59.582C213.609 60.5273 214.064 61 214.955 61C215.455 61 215.943 60.9375 216.42 60.8125V57.6602H217.51V64ZM223.164 64C223.102 63.875 223.051 63.6523 223.012 63.332C222.508 63.8555 221.906 64.1172 221.207 64.1172C220.582 64.1172 220.068 63.9414 219.666 63.5898C219.268 63.2344 219.068 62.7852 219.068 62.2422C219.068 61.582 219.318 61.0703 219.818 60.707C220.322 60.3398 221.029 60.1562 221.939 60.1562H222.994V59.6582C222.994 59.2793 222.881 58.9785 222.654 58.7559C222.428 58.5293 222.094 58.416 221.652 58.416C221.266 58.416 220.941 58.5137 220.68 58.709C220.418 58.9043 220.287 59.1406 220.287 59.418H219.197C219.197 59.1016 219.309 58.7969 219.531 58.5039C219.758 58.207 220.062 57.9727 220.445 57.8008C220.832 57.6289 221.256 57.543 221.717 57.543C222.447 57.543 223.02 57.7266 223.434 58.0938C223.848 58.457 224.062 58.959 224.078 59.5996V62.5176C224.078 63.0996 224.152 63.5625 224.301 63.9062V64H223.164ZM221.365 63.1738C221.705 63.1738 222.027 63.0859 222.332 62.9102C222.637 62.7344 222.857 62.5059 222.994 62.2246V60.9238H222.145C220.816 60.9238 220.152 61.3125 220.152 62.0898C220.152 62.4297 220.266 62.6953 220.492 62.8867C220.719 63.0781 221.01 63.1738 221.365 63.1738ZM228.32 63.2324C228.707 63.2324 229.045 63.1152 229.334 62.8809C229.623 62.6465 229.783 62.3535 229.814 62.002H230.84C230.82 62.3652 230.695 62.7109 230.465 63.0391C230.234 63.3672 229.926 63.6289 229.539 63.8242C229.156 64.0195 228.75 64.1172 228.32 64.1172C227.457 64.1172 226.77 63.8301 226.258 63.2559C225.75 62.6777 225.496 61.8887 225.496 60.8887V60.707C225.496 60.0898 225.609 59.541 225.836 59.0605C226.062 58.5801 226.387 58.207 226.809 57.9414C227.234 57.6758 227.736 57.543 228.314 57.543C229.025 57.543 229.615 57.7559 230.084 58.1816C230.557 58.6074 230.809 59.1602 230.84 59.8398H229.814C229.783 59.4297 229.627 59.0938 229.346 58.832C229.068 58.5664 228.725 58.4336 228.314 58.4336C227.764 58.4336 227.336 58.6328 227.031 59.0312C226.73 59.4258 226.58 59.998 226.58 60.748V60.9531C226.58 61.6836 226.73 62.2461 227.031 62.6406C227.332 63.0352 227.762 63.2324 228.32 63.2324ZM231.771 60.7715C231.771 60.1504 231.893 59.5918 232.135 59.0957C232.381 58.5996 232.721 58.2168 233.154 57.9473C233.592 57.6777 234.09 57.543 234.648 57.543C235.512 57.543 236.209 57.8418 236.74 58.4395C237.275 59.0371 237.543 59.832 237.543 60.8242V60.9004C237.543 61.5176 237.424 62.0723 237.186 62.5645C236.951 63.0527 236.613 63.4336 236.172 63.707C235.734 63.9805 235.23 64.1172 234.66 64.1172C233.801 64.1172 233.104 63.8184 232.568 63.2207C232.037 62.623 231.771 61.832 231.771 60.8477V60.7715ZM232.861 60.9004C232.861 61.6035 233.023 62.168 233.348 62.5938C233.676 63.0195 234.113 63.2324 234.66 63.2324C235.211 63.2324 235.648 63.0176 235.973 62.5879C236.297 62.1543 236.459 61.5488 236.459 60.7715C236.459 60.0762 236.293 59.5137 235.961 59.084C235.633 58.6504 235.195 58.4336 234.648 58.4336C234.113 58.4336 233.682 58.6465 233.354 59.0723C233.025 59.498 232.861 60.1074 232.861 60.9004ZM239.002 64V57.6602H241.475C242.318 57.6602 242.965 57.8086 243.414 58.1055C243.867 58.3984 244.094 58.8301 244.094 59.4004C244.094 59.6934 244.006 59.959 243.83 60.1973C243.654 60.4316 243.395 60.6113 243.051 60.7363C243.434 60.8262 243.74 61.002 243.971 61.2637C244.205 61.5254 244.322 61.8379 244.322 62.2012C244.322 62.7832 244.107 63.2285 243.678 63.5371C243.252 63.8457 242.648 64 241.867 64H239.002ZM240.086 61.2168V63.127H241.879C242.332 63.127 242.67 63.043 242.893 62.875C243.119 62.707 243.232 62.4707 243.232 62.166C243.232 61.5332 242.768 61.2168 241.838 61.2168H240.086ZM240.086 60.3496H241.486C242.502 60.3496 243.01 60.0527 243.01 59.459C243.01 58.8652 242.529 58.5586 241.568 58.5391H240.086V60.3496ZM248.834 64V57.6602H251.307C252.15 57.6602 252.797 57.8086 253.246 58.1055C253.699 58.3984 253.926 58.8301 253.926 59.4004C253.926 59.6934 253.838 59.959 253.662 60.1973C253.486 60.4316 253.227 60.6113 252.883 60.7363C253.266 60.8262 253.572 61.002 253.803 61.2637C254.037 61.5254 254.154 61.8379 254.154 62.2012C254.154 62.7832 253.939 63.2285 253.51 63.5371C253.084 63.8457 252.48 64 251.699 64H248.834ZM249.918 61.2168V63.127H251.711C252.164 63.127 252.502 63.043 252.725 62.875C252.951 62.707 253.064 62.4707 253.064 62.166C253.064 61.5332 252.6 61.2168 251.67 61.2168H249.918ZM249.918 60.3496H251.318C252.334 60.3496 252.842 60.0527 252.842 59.459C252.842 58.8652 252.361 58.5586 251.4 58.5391H249.918V60.3496ZM16.8027 81.2324C17.1895 81.2324 17.5273 81.1152 17.8164 80.8809C18.1055 80.6465 18.2656 80.3535 18.2969 80.002H19.3223C19.3027 80.3652 19.1777 80.7109 18.9473 81.0391C18.7168 81.3672 18.4082 81.6289 18.0215 81.8242C17.6387 82.0195 17.2324 82.1172 16.8027 82.1172C15.9395 82.1172 15.252 81.8301 14.7402 81.2559C14.2324 80.6777 13.9785 79.8887 13.9785 78.8887V78.707C13.9785 78.0898 14.0918 77.541 14.3184 77.0605C14.5449 76.5801 14.8691 76.207 15.291 75.9414C15.7168 75.6758 16.2188 75.543 16.7969 75.543C17.5078 75.543 18.0977 75.7559 18.5664 76.1816C19.0391 76.6074 19.291 77.1602 19.3223 77.8398H18.2969C18.2656 77.4297 18.1094 77.0938 17.8281 76.832C17.5508 76.5664 17.207 76.4336 16.7969 76.4336C16.2461 76.4336 15.8184 76.6328 15.5137 77.0312C15.2129 77.4258 15.0625 77.998 15.0625 78.748V78.9531C15.0625 79.6836 15.2129 80.2461 15.5137 80.6406C15.8145 81.0352 16.2441 81.2324 16.8027 81.2324ZM20.2539 78.7715C20.2539 78.1504 20.375 77.5918 20.6172 77.0957C20.8633 76.5996 21.2031 76.2168 21.6367 75.9473C22.0742 75.6777 22.5723 75.543 23.1309 75.543C23.9941 75.543 24.6914 75.8418 25.2227 76.4395C25.7578 77.0371 26.0254 77.832 26.0254 78.8242V78.9004C26.0254 79.5176 25.9062 80.0723 25.668 80.5645C25.4336 81.0527 25.0957 81.4336 24.6543 81.707C24.2168 81.9805 23.7129 82.1172 23.1426 82.1172C22.2832 82.1172 21.5859 81.8184 21.0508 81.2207C20.5195 80.623 20.2539 79.832 20.2539 78.8477V78.7715ZM21.3438 78.9004C21.3438 79.6035 21.5059 80.168 21.8301 80.5938C22.1582 81.0195 22.5957 81.2324 23.1426 81.2324C23.6934 81.2324 24.1309 81.0176 24.4551 80.5879C24.7793 80.1543 24.9414 79.5488 24.9414 78.7715C24.9414 78.0762 24.7754 77.5137 24.4434 77.084C24.1152 76.6504 23.6777 76.4336 23.1309 76.4336C22.5957 76.4336 22.1641 76.6465 21.8359 77.0723C21.5078 77.498 21.3438 78.1074 21.3438 78.9004ZM30.8711 77.3945C30.8711 77.0977 30.7578 76.8633 30.5312 76.6914C30.3047 76.5156 29.9941 76.4277 29.5996 76.4277C29.2168 76.4277 28.8965 76.5273 28.6387 76.7266C28.3848 76.9258 28.2578 77.1602 28.2578 77.4297H27.1797C27.1797 76.8789 27.4102 76.4277 27.8711 76.0762C28.332 75.7246 28.9082 75.5488 29.5996 75.5488C30.3418 75.5488 30.9199 75.709 31.334 76.0293C31.748 76.3457 31.9551 76.7988 31.9551 77.3887C31.9551 77.6738 31.8691 77.9355 31.6973 78.1738C31.5254 78.4121 31.2812 78.6016 30.9648 78.7422C31.7031 78.9922 32.0723 79.4844 32.0723 80.2188C32.0723 80.8008 31.8477 81.2617 31.3984 81.6016C30.9492 81.9414 30.3496 82.1113 29.5996 82.1113C28.8691 82.1113 28.2656 81.9336 27.7891 81.5781C27.3164 81.2188 27.0801 80.7344 27.0801 80.125H28.1582C28.1582 80.4336 28.2949 80.6992 28.5684 80.9219C28.8457 81.1406 29.1895 81.25 29.5996 81.25C30.0137 81.25 30.3477 81.1543 30.6016 80.9629C30.8555 80.7715 30.9824 80.5234 30.9824 80.2188C30.9824 79.8633 30.875 79.6094 30.6602 79.457C30.4492 79.3008 30.1191 79.2227 29.6699 79.2227H28.5859V78.3086H29.7637C30.502 78.2891 30.8711 77.9844 30.8711 77.3945ZM33.4258 81.1152L33.8008 80.6523C34.2227 80.1055 34.4629 79.2852 34.5215 78.1914L34.6211 75.6602H38.7051V81.1152H39.5195V83.8633H38.4355V82H34.0117V83.8633H32.9277L32.9336 81.1152H33.4258ZM34.709 81.1152H37.6211V76.6621H35.6699L35.6055 78.1738C35.5391 79.4355 35.2402 80.416 34.709 81.1152ZM44.6348 82C44.5723 81.875 44.5215 81.6523 44.4824 81.332C43.9785 81.8555 43.377 82.1172 42.6777 82.1172C42.0527 82.1172 41.5391 81.9414 41.1367 81.5898C40.7383 81.2344 40.5391 80.7852 40.5391 80.2422C40.5391 79.582 40.7891 79.0703 41.2891 78.707C41.793 78.3398 42.5 78.1562 43.4102 78.1562H44.4648V77.6582C44.4648 77.2793 44.3516 76.9785 44.125 76.7559C43.8984 76.5293 43.5645 76.416 43.123 76.416C42.7363 76.416 42.4121 76.5137 42.1504 76.709C41.8887 76.9043 41.7578 77.1406 41.7578 77.418H40.668C40.668 77.1016 40.7793 76.7969 41.002 76.5039C41.2285 76.207 41.5332 75.9727 41.916 75.8008C42.3027 75.6289 42.7266 75.543 43.1875 75.543C43.918 75.543 44.4902 75.7266 44.9043 76.0938C45.3184 76.457 45.5332 76.959 45.5488 77.5996V80.5176C45.5488 81.0996 45.623 81.5625 45.7715 81.9062V82H44.6348ZM42.8359 81.1738C43.1758 81.1738 43.498 81.0859 43.8027 80.9102C44.1074 80.7344 44.3281 80.5059 44.4648 80.2246V78.9238H43.6152C42.2871 78.9238 41.623 79.3125 41.623 80.0898C41.623 80.4297 41.7363 80.6953 41.9629 80.8867C42.1895 81.0781 42.4805 81.1738 42.8359 81.1738ZM52.4277 82H51.3438V79.293H48.4316V82H47.3418V75.6602H48.4316V78.4082H51.3438V75.6602H52.4277V82ZM58.2754 75.6602H59.3594V82H58.2754V77.377L55.3516 82H54.2676V75.6602H55.3516V80.2891L58.2754 75.6602ZM65.2012 75.6602H66.2852V82H65.2012V77.377L62.2773 82H61.1934V75.6602H62.2773V80.2891L65.2012 75.6602ZM73.5449 81.2324C73.9316 81.2324 74.2695 81.1152 74.5586 80.8809C74.8477 80.6465 75.0078 80.3535 75.0391 80.002H76.0645C76.0449 80.3652 75.9199 80.7109 75.6895 81.0391C75.459 81.3672 75.1504 81.6289 74.7637 81.8242C74.3809 82.0195 73.9746 82.1172 73.5449 82.1172C72.6816 82.1172 71.9941 81.8301 71.4824 81.2559C70.9746 80.6777 70.7207 79.8887 70.7207 78.8887V78.707C70.7207 78.0898 70.834 77.541 71.0605 77.0605C71.2871 76.5801 71.6113 76.207 72.0332 75.9414C72.459 75.6758 72.9609 75.543 73.5391 75.543C74.25 75.543 74.8398 75.7559 75.3086 76.1816C75.7812 76.6074 76.0332 77.1602 76.0645 77.8398H75.0391C75.0078 77.4297 74.8516 77.0938 74.5703 76.832C74.293 76.5664 73.9492 76.4336 73.5391 76.4336C72.9883 76.4336 72.5605 76.6328 72.2559 77.0312C71.9551 77.4258 71.8047 77.998 71.8047 78.748V78.9531C71.8047 79.6836 71.9551 80.2461 72.2559 80.6406C72.5566 81.0352 72.9863 81.2324 73.5449 81.2324ZM81.1973 82C81.1348 81.875 81.084 81.6523 81.0449 81.332C80.541 81.8555 79.9395 82.1172 79.2402 82.1172C78.6152 82.1172 78.1016 81.9414 77.6992 81.5898C77.3008 81.2344 77.1016 80.7852 77.1016 80.2422C77.1016 79.582 77.3516 79.0703 77.8516 78.707C78.3555 78.3398 79.0625 78.1562 79.9727 78.1562H81.0273V77.6582C81.0273 77.2793 80.9141 76.9785 80.6875 76.7559C80.4609 76.5293 80.127 76.416 79.6855 76.416C79.2988 76.416 78.9746 76.5137 78.7129 76.709C78.4512 76.9043 78.3203 77.1406 78.3203 77.418H77.2305C77.2305 77.1016 77.3418 76.7969 77.5645 76.5039C77.791 76.207 78.0957 75.9727 78.4785 75.8008C78.8652 75.6289 79.2891 75.543 79.75 75.543C80.4805 75.543 81.0527 75.7266 81.4668 76.0938C81.8809 76.457 82.0957 76.959 82.1113 77.5996V80.5176C82.1113 81.0996 82.1855 81.5625 82.334 81.9062V82H81.1973ZM79.3984 81.1738C79.7383 81.1738 80.0605 81.0859 80.3652 80.9102C80.6699 80.7344 80.8906 80.5059 81.0273 80.2246V78.9238H80.1777C78.8496 78.9238 78.1855 79.3125 78.1855 80.0898C78.1855 80.4297 78.2988 80.6953 78.5254 80.8867C78.752 81.0781 79.043 81.1738 79.3984 81.1738ZM87.9121 75.6602H88.9961V82H87.9121V77.377L84.9883 82H83.9043V75.6602H84.9883V80.2891L87.9121 75.6602ZM88.2051 73.3516C88.2051 73.8242 88.043 74.2051 87.7188 74.4941C87.3984 74.7793 86.9766 74.9219 86.4531 74.9219C85.9297 74.9219 85.5059 74.7773 85.1816 74.4883C84.8574 74.1992 84.6953 73.8203 84.6953 73.3516H85.5801C85.5801 73.625 85.6543 73.8398 85.8027 73.9961C85.9512 74.1484 86.168 74.2246 86.4531 74.2246C86.7266 74.2246 86.9395 74.1484 87.0918 73.9961C87.248 73.8438 87.3262 73.6289 87.3262 73.3516H88.2051ZM95.4473 76.5391H93.3203V82H92.2363V76.5391H90.1504V75.6602H95.4473V76.5391ZM95.9688 78.7715C95.9688 78.1504 96.0898 77.5918 96.332 77.0957C96.5781 76.5996 96.918 76.2168 97.3516 75.9473C97.7891 75.6777 98.2871 75.543 98.8457 75.543C99.709 75.543 100.406 75.8418 100.938 76.4395C101.473 77.0371 101.74 77.832 101.74 78.8242V78.9004C101.74 79.5176 101.621 80.0723 101.383 80.5645C101.148 81.0527 100.811 81.4336 100.369 81.707C99.9316 81.9805 99.4277 82.1172 98.8574 82.1172C97.998 82.1172 97.3008 81.8184 96.7656 81.2207C96.2344 80.623 95.9688 79.832 95.9688 78.8477V78.7715ZM97.0586 78.9004C97.0586 79.6035 97.2207 80.168 97.5449 80.5938C97.873 81.0195 98.3105 81.2324 98.8574 81.2324C99.4082 81.2324 99.8457 81.0176 100.17 80.5879C100.494 80.1543 100.656 79.5488 100.656 78.7715C100.656 78.0762 100.49 77.5137 100.158 77.084C99.8301 76.6504 99.3926 76.4336 98.8457 76.4336C98.3105 76.4336 97.8789 76.6465 97.5508 77.0723C97.2227 77.498 97.0586 78.1074 97.0586 78.9004ZM103.199 82V75.6602H105.672C106.516 75.6602 107.162 75.8086 107.611 76.1055C108.064 76.3984 108.291 76.8301 108.291 77.4004C108.291 77.6934 108.203 77.959 108.027 78.1973C107.852 78.4316 107.592 78.6113 107.248 78.7363C107.631 78.8262 107.938 79.002 108.168 79.2637C108.402 79.5254 108.52 79.8379 108.52 80.2012C108.52 80.7832 108.305 81.2285 107.875 81.5371C107.449 81.8457 106.846 82 106.064 82H103.199ZM104.283 79.2168V81.127H106.076C106.529 81.127 106.867 81.043 107.09 80.875C107.316 80.707 107.43 80.4707 107.43 80.166C107.43 79.5332 106.965 79.2168 106.035 79.2168H104.283ZM104.283 78.3496H105.684C106.699 78.3496 107.207 78.0527 107.207 77.459C107.207 76.8652 106.727 76.5586 105.766 76.5391H104.283V78.3496ZM118.287 78.9004C118.287 79.8652 118.066 80.6426 117.625 81.2324C117.184 81.8223 116.586 82.1172 115.832 82.1172C115.062 82.1172 114.457 81.873 114.016 81.3848V84.4375H112.932V75.6602H113.922L113.975 76.3633C114.416 75.8164 115.029 75.543 115.814 75.543C116.576 75.543 117.178 75.8301 117.619 76.4043C118.064 76.9785 118.287 77.7773 118.287 78.8008V78.9004ZM117.203 78.7773C117.203 78.0625 117.051 77.498 116.746 77.084C116.441 76.6699 116.023 76.4629 115.492 76.4629C114.836 76.4629 114.344 76.7539 114.016 77.3359V80.3652C114.34 80.9434 114.836 81.2324 115.504 81.2324C116.023 81.2324 116.436 81.0273 116.74 80.6172C117.049 80.2031 117.203 79.5898 117.203 78.7773ZM123.584 82C123.521 81.875 123.471 81.6523 123.432 81.332C122.928 81.8555 122.326 82.1172 121.627 82.1172C121.002 82.1172 120.488 81.9414 120.086 81.5898C119.688 81.2344 119.488 80.7852 119.488 80.2422C119.488 79.582 119.738 79.0703 120.238 78.707C120.742 78.3398 121.449 78.1562 122.359 78.1562H123.414V77.6582C123.414 77.2793 123.301 76.9785 123.074 76.7559C122.848 76.5293 122.514 76.416 122.072 76.416C121.686 76.416 121.361 76.5137 121.1 76.709C120.838 76.9043 120.707 77.1406 120.707 77.418H119.617C119.617 77.1016 119.729 76.7969 119.951 76.5039C120.178 76.207 120.482 75.9727 120.865 75.8008C121.252 75.6289 121.676 75.543 122.137 75.543C122.867 75.543 123.439 75.7266 123.854 76.0938C124.268 76.457 124.482 76.959 124.498 77.5996V80.5176C124.498 81.0996 124.572 81.5625 124.721 81.9062V82H123.584ZM121.785 81.1738C122.125 81.1738 122.447 81.0859 122.752 80.9102C123.057 80.7344 123.277 80.5059 123.414 80.2246V78.9238H122.564C121.236 78.9238 120.572 79.3125 120.572 80.0898C120.572 80.4297 120.686 80.6953 120.912 80.8867C121.139 81.0781 121.43 81.1738 121.785 81.1738ZM129.684 77.3945C129.684 77.0977 129.57 76.8633 129.344 76.6914C129.117 76.5156 128.807 76.4277 128.412 76.4277C128.029 76.4277 127.709 76.5273 127.451 76.7266C127.197 76.9258 127.07 77.1602 127.07 77.4297H125.992C125.992 76.8789 126.223 76.4277 126.684 76.0762C127.145 75.7246 127.721 75.5488 128.412 75.5488C129.154 75.5488 129.732 75.709 130.146 76.0293C130.561 76.3457 130.768 76.7988 130.768 77.3887C130.768 77.6738 130.682 77.9355 130.51 78.1738C130.338 78.4121 130.094 78.6016 129.777 78.7422C130.516 78.9922 130.885 79.4844 130.885 80.2188C130.885 80.8008 130.66 81.2617 130.211 81.6016C129.762 81.9414 129.162 82.1113 128.412 82.1113C127.682 82.1113 127.078 81.9336 126.602 81.5781C126.129 81.2188 125.893 80.7344 125.893 80.125H126.971C126.971 80.4336 127.107 80.6992 127.381 80.9219C127.658 81.1406 128.002 81.25 128.412 81.25C128.826 81.25 129.16 81.1543 129.414 80.9629C129.668 80.7715 129.795 80.5234 129.795 80.2188C129.795 79.8633 129.688 79.6094 129.473 79.457C129.262 79.3008 128.932 79.2227 128.482 79.2227H127.398V78.3086H128.576C129.314 78.2891 129.684 77.9844 129.684 77.3945ZM137.488 75.6602V82H136.398V76.5566H134.242L134.113 78.9297C134.043 80.0195 133.859 80.7988 133.562 81.2676C133.27 81.7363 132.803 81.9805 132.162 82H131.729V81.0449L132.039 81.0215C132.391 80.9824 132.643 80.7793 132.795 80.4121C132.947 80.0449 133.045 79.3652 133.088 78.373L133.205 75.6602H137.488ZM143.33 75.6602H144.414V82H143.33V77.377L140.406 82H139.322V75.6602H140.406V80.2891L143.33 75.6602ZM150.941 82H149.852V79.7031C149.375 79.8281 148.887 79.8906 148.387 79.8906C147.594 79.8906 146.988 79.6875 146.57 79.2812C146.156 78.875 145.945 78.2969 145.938 77.5469V75.6543H147.021V77.582C147.041 78.5273 147.496 79 148.387 79C148.887 79 149.375 78.9375 149.852 78.8125V75.6602H150.941V82ZM157.861 82H156.777V79.293H153.865V82H152.775V75.6602H153.865V78.4082H156.777V75.6602H157.861V82ZM159.32 78.7715C159.32 78.1504 159.441 77.5918 159.684 77.0957C159.93 76.5996 160.27 76.2168 160.703 75.9473C161.141 75.6777 161.639 75.543 162.197 75.543C163.061 75.543 163.758 75.8418 164.289 76.4395C164.824 77.0371 165.092 77.832 165.092 78.8242V78.9004C165.092 79.5176 164.973 80.0723 164.734 80.5645C164.5 81.0527 164.162 81.4336 163.721 81.707C163.283 81.9805 162.779 82.1172 162.209 82.1172C161.35 82.1172 160.652 81.8184 160.117 81.2207C159.586 80.623 159.32 79.832 159.32 78.8477V78.7715ZM160.41 78.9004C160.41 79.6035 160.572 80.168 160.896 80.5938C161.225 81.0195 161.662 81.2324 162.209 81.2324C162.76 81.2324 163.197 81.0176 163.521 80.5879C163.846 80.1543 164.008 79.5488 164.008 78.7715C164.008 78.0762 163.842 77.5137 163.51 77.084C163.182 76.6504 162.744 76.4336 162.197 76.4336C161.662 76.4336 161.23 76.6465 160.902 77.0723C160.574 77.498 160.41 78.1074 160.41 78.9004ZM170.553 75.6602H171.637V82H170.553V77.377L167.629 82H166.545V75.6602H167.629V80.2891L170.553 75.6602ZM170.846 73.3516C170.846 73.8242 170.684 74.2051 170.359 74.4941C170.039 74.7793 169.617 74.9219 169.094 74.9219C168.57 74.9219 168.146 74.7773 167.822 74.4883C167.498 74.1992 167.336 73.8203 167.336 73.3516H168.221C168.221 73.625 168.295 73.8398 168.443 73.9961C168.592 74.1484 168.809 74.2246 169.094 74.2246C169.367 74.2246 169.58 74.1484 169.732 73.9961C169.889 73.8438 169.967 73.6289 169.967 73.3516H170.846ZM178.896 81.2324C179.283 81.2324 179.621 81.1152 179.91 80.8809C180.199 80.6465 180.359 80.3535 180.391 80.002H181.416C181.396 80.3652 181.271 80.7109 181.041 81.0391C180.811 81.3672 180.502 81.6289 180.115 81.8242C179.732 82.0195 179.326 82.1172 178.896 82.1172C178.033 82.1172 177.346 81.8301 176.834 81.2559C176.326 80.6777 176.072 79.8887 176.072 78.8887V78.707C176.072 78.0898 176.186 77.541 176.412 77.0605C176.639 76.5801 176.963 76.207 177.385 75.9414C177.811 75.6758 178.312 75.543 178.891 75.543C179.602 75.543 180.191 75.7559 180.66 76.1816C181.133 76.6074 181.385 77.1602 181.416 77.8398H180.391C180.359 77.4297 180.203 77.0938 179.922 76.832C179.645 76.5664 179.301 76.4336 178.891 76.4336C178.34 76.4336 177.912 76.6328 177.607 77.0312C177.307 77.4258 177.156 77.998 177.156 78.748V78.9531C177.156 79.6836 177.307 80.2461 177.607 80.6406C177.908 81.0352 178.338 81.2324 178.896 81.2324ZM187.832 75.6602V82H186.742V76.5566H184.586L184.457 78.9297C184.387 80.0195 184.203 80.7988 183.906 81.2676C183.613 81.7363 183.146 81.9805 182.506 82H182.072V81.0449L182.383 81.0215C182.734 80.9824 182.986 80.7793 183.139 80.4121C183.291 80.0449 183.389 79.3652 183.432 78.373L183.549 75.6602H187.832ZM189.285 78.7715C189.285 78.1504 189.406 77.5918 189.648 77.0957C189.895 76.5996 190.234 76.2168 190.668 75.9473C191.105 75.6777 191.604 75.543 192.162 75.543C193.025 75.543 193.723 75.8418 194.254 76.4395C194.789 77.0371 195.057 77.832 195.057 78.8242V78.9004C195.057 79.5176 194.938 80.0723 194.699 80.5645C194.465 81.0527 194.127 81.4336 193.686 81.707C193.248 81.9805 192.744 82.1172 192.174 82.1172C191.314 82.1172 190.617 81.8184 190.082 81.2207C189.551 80.623 189.285 79.832 189.285 78.8477V78.7715ZM190.375 78.9004C190.375 79.6035 190.537 80.168 190.861 80.5938C191.189 81.0195 191.627 81.2324 192.174 81.2324C192.725 81.2324 193.162 81.0176 193.486 80.5879C193.811 80.1543 193.973 79.5488 193.973 78.7715C193.973 78.0762 193.807 77.5137 193.475 77.084C193.146 76.6504 192.709 76.4336 192.162 76.4336C191.627 76.4336 191.195 76.6465 190.867 77.0723C190.539 77.498 190.375 78.1074 190.375 78.9004ZM201.344 79.2461H200.582V82H199.498V79.2461H198.736L196.961 82H195.59L197.857 78.7188L195.807 75.6602H197.119L198.754 78.2852H199.498V75.6602H200.582V78.2852H201.32L202.967 75.6602H204.279L202.223 78.7246L204.49 82H203.119L201.344 79.2461ZM210.654 82H209.57V79.293H206.658V82H205.568V75.6602H206.658V78.4082H209.57V75.6602H210.654V82ZM212.113 78.7715C212.113 78.1504 212.234 77.5918 212.477 77.0957C212.723 76.5996 213.062 76.2168 213.496 75.9473C213.934 75.6777 214.432 75.543 214.99 75.543C215.854 75.543 216.551 75.8418 217.082 76.4395C217.617 77.0371 217.885 77.832 217.885 78.8242V78.9004C217.885 79.5176 217.766 80.0723 217.527 80.5645C217.293 81.0527 216.955 81.4336 216.514 81.707C216.076 81.9805 215.572 82.1172 215.002 82.1172C214.143 82.1172 213.445 81.8184 212.91 81.2207C212.379 80.623 212.113 79.832 212.113 78.8477V78.7715ZM213.203 78.9004C213.203 79.6035 213.365 80.168 213.689 80.5938C214.018 81.0195 214.455 81.2324 215.002 81.2324C215.553 81.2324 215.99 81.0176 216.314 80.5879C216.639 80.1543 216.801 79.5488 216.801 78.7715C216.801 78.0762 216.635 77.5137 216.303 77.084C215.975 76.6504 215.537 76.4336 214.99 76.4336C214.455 76.4336 214.023 76.6465 213.695 77.0723C213.367 77.498 213.203 78.1074 213.203 78.9004ZM221.787 81.2324C222.174 81.2324 222.512 81.1152 222.801 80.8809C223.09 80.6465 223.25 80.3535 223.281 80.002H224.307C224.287 80.3652 224.162 80.7109 223.932 81.0391C223.701 81.3672 223.393 81.6289 223.006 81.8242C222.623 82.0195 222.217 82.1172 221.787 82.1172C220.924 82.1172 220.236 81.8301 219.725 81.2559C219.217 80.6777 218.963 79.8887 218.963 78.8887V78.707C218.963 78.0898 219.076 77.541 219.303 77.0605C219.529 76.5801 219.854 76.207 220.275 75.9414C220.701 75.6758 221.203 75.543 221.781 75.543C222.492 75.543 223.082 75.7559 223.551 76.1816C224.023 76.6074 224.275 77.1602 224.307 77.8398H223.281C223.25 77.4297 223.094 77.0938 222.812 76.832C222.535 76.5664 222.191 76.4336 221.781 76.4336C221.23 76.4336 220.803 76.6328 220.498 77.0312C220.197 77.4258 220.047 77.998 220.047 78.748V78.9531C220.047 79.6836 220.197 80.2461 220.498 80.6406C220.799 81.0352 221.229 81.2324 221.787 81.2324ZM230.236 76.5391H228.109V82H227.025V76.5391H224.939V75.6602H230.236V76.5391ZM235.393 75.6602H236.477V82H235.393V77.377L232.469 82H231.385V75.6602H232.469V80.2891L235.393 75.6602ZM238.24 81.4316C238.24 81.2441 238.295 81.0879 238.404 80.9629C238.518 80.8379 238.686 80.7754 238.908 80.7754C239.131 80.7754 239.299 80.8379 239.412 80.9629C239.529 81.0879 239.588 81.2441 239.588 81.4316C239.588 81.6113 239.529 81.7617 239.412 81.8828C239.299 82.0039 239.131 82.0645 238.908 82.0645C238.686 82.0645 238.518 82.0039 238.404 81.8828C238.295 81.7617 238.24 81.6113 238.24 81.4316Z" fill="white"/>
</svg>
